<svg xmlns="http://www.w3.org/2000/svg" xmlns:xlink="http://www.w3.org/1999/xlink" fill="none" version="1.1" width="24" height="24" viewBox="0 0 24 24"><defs><clipPath id="master_svg0_134_6042"><rect x="0" y="0" width="24" height="24" rx="0"/></clipPath></defs><g clip-path="url(#master_svg0_134_6042)"><g><path d="M12.75,19.9675L12.75,21.25C12.75,21.6642,12.41421,22,12,22C11.58579,22,11.25,21.6642,11.25,21.25L11.25,19.9675C6.906750000000001,19.5875,3.5,15.9415,3.5,11.5L3.5,11C3.500000286102,10.58579,3.835787,10.25,4.250001,10.25C4.66421,10.25,5,10.58579,5,11L5,11.5C5,15.366,8.134,18.5,12,18.5C15.866,18.5,19,15.366,19,11.5L19,11C19,10.58579,19.3358,10.25,19.75,10.25C20.1642,10.25,20.5,10.58579,20.5,11L20.5,11.5C20.5,15.9417,17.0933,19.5875,12.75,19.9675ZM7,6.9975C7,4.2375,9.23825,2,12,2C14.7605,2,17,4.23925,17,6.9975L17,11.5025C17,14.2625,14.7618,16.5,12,16.5C9.2395,16.5,7,14.2608,7,11.5025L7,6.9975ZM8.5,6.9975L8.5,11.5025C8.5,13.4325,10.06775,15,12,15C13.9335,15,15.5,13.4342,15.5,11.5025L15.5,6.9975C15.5,5.0675,13.9323,3.5,12,3.5C10.0665,3.5,8.5,5.0657499999999995,8.5,6.9975Z" fill="#3B82F6" fill-opacity="1"/></g></g></svg>
