<svg xmlns="http://www.w3.org/2000/svg" xmlns:xlink="http://www.w3.org/1999/xlink" fill="none" version="1.1" width="16" height="16" viewBox="0 0 16 16"><defs><clipPath id="master_svg0_102_10208"><rect x="0" y="0" width="16" height="16" rx="0"/></clipPath></defs><g clip-path="url(#master_svg0_102_10208)"><g><path d="M6.16650390625,1.66668701171875L13.16650390625,1.66668701171875C13.81080390625,1.66668682098375,14.33320390625,2.18902101171875,14.33320390625,2.83335701171875L14.33320390625,9.83335701171875C14.33320390625,10.47768701171875,13.81080390625,11.00001701171875,13.16650390625,11.00001701171875L6.16650390625,11.00001701171875C5.52217390625,11.00001701171875,4.99983390625,10.47768701171875,4.99983390625,9.83335701171875L4.99983390625,2.83335701171875C4.99983390625,2.18902201171875,5.52217390625,1.66668720245375,6.16650390625,1.66668701171875ZM6.16650390625,2.66668701171875C6.07445390625,2.66668701171875,5.99983390625,2.74130701171875,5.99983390625,2.83335701171875L5.99983390625,9.83335701171875C5.99983390625,9.92539701171875,6.07445390625,10.00001701171875,6.16650390625,10.00001701171875L13.16650390625,10.00001701171875C13.25850390625,10.00001701171875,13.33320390625,9.92539701171875,13.33320390625,9.83335701171875L13.33320390625,2.83335701171875C13.33320390625,2.74130701171875,13.25850390625,2.66668701171875,13.16650390625,2.66668701171875L6.16650390625,2.66668701171875ZM9.99983390625,11.99998701171875C9.99983390625,11.72388701171875,10.22369390625,11.50001701171875,10.49983390625,11.50001701171875C10.77598390625,11.50001701171875,10.99983390625,11.72388701171875,10.99983390625,11.99998701171875L10.99983390625,13.16668701171875C10.99983390625,13.81098701171875,10.47750390625,14.33338701171875,9.83317390625,14.33338701171875L2.83317390625,14.33338701171875C2.18883790625,14.33338701171875,1.66650390625,13.81098701171875,1.66650390625,13.16668701171875L1.66650390625,6.16668701171875C1.666503715515,5.52235701171875,2.18883790625,5.00001701171875,2.83317390625,5.00001701171875L3.99983390625,5.00001701171875C4.27598390625,5.00001701171875,4.49983390625,5.22387701171875,4.49983390625,5.50001701171875C4.49983390625,5.77616701171875,4.27598390625,6.00001701171875,3.99983390625,6.00001701171875L2.83317390625,6.00001701171875C2.74112390625,6.00001701171875,2.66650390625,6.07463701171875,2.66650390625,6.16668701171875L2.66650390625,13.16668701171875C2.66650390625,13.25868701171875,2.74112390625,13.33338701171875,2.83317390625,13.33338701171875L9.83317390625,13.33338701171875C9.92521390625,13.33338701171875,9.99983390625,13.25868701171875,9.99983390625,13.16668701171875L9.99983390625,11.99998701171875Z" fill="#697B98" fill-opacity="1"/></g></g></svg>
