<svg xmlns="http://www.w3.org/2000/svg" xmlns:xlink="http://www.w3.org/1999/xlink" fill="none" version="1.1" width="372" height="25" viewBox="0 0 372 25"><defs><clipPath id="master_svg0_105_2504"><rect x="74" y="0" width="25" height="25" rx="0"/></clipPath></defs><g><g><path d="M5.32,7.348C3.78,7.348,2.576,7.866,1.736,8.93C0.966,9.882,0.588,11.1,0.588,12.584C0.588,14.068,0.952,15.272,1.708,16.195999999999998C2.534,17.218,3.724,17.736,5.278,17.736C6.342,17.736,7.266,17.428,8.036,16.826C8.862,16.182000000000002,9.38,15.272,9.604,14.11L8.498,14.11C8.302,14.978,7.896,15.636,7.308,16.084C6.748,16.503999999999998,6.076,16.714,5.278,16.714C4.102,16.714,3.22,16.322,2.604,15.552C2.016,14.824,1.736,13.83,1.736,12.584C1.736,11.338,2.03,10.344000000000001,2.618,9.588000000000001C3.248,8.776,4.144,8.370000000000001,5.306,8.370000000000001C6.09,8.370000000000001,6.748,8.552,7.294,8.93C7.854,9.322,8.218,9.882,8.358,10.61L9.464,10.61C9.324,9.616,8.876,8.818,8.12,8.23C7.364,7.642,6.426,7.348,5.32,7.348ZM14.294,10.106C13.202,10.106,12.348,10.469999999999999,11.704,11.226C11.088,11.94,10.78,12.836,10.78,13.928C10.78,15.006,11.088,15.902,11.704,16.602C12.348,17.358,13.202,17.736,14.294,17.736C15.372,17.736,16.24,17.358,16.898,16.602C17.5,15.902,17.808,15.006,17.808,13.928C17.808,12.836,17.5,11.94,16.884,11.226C16.24,10.469999999999999,15.372,10.106,14.294,10.106ZM14.294,11.044C15.05,11.044,15.652,11.338,16.1,11.926C16.478,12.458,16.674,13.116,16.674,13.928C16.674,14.712,16.478,15.384,16.1,15.916C15.652,16.503999999999998,15.05,16.798000000000002,14.294,16.798000000000002C13.524,16.798000000000002,12.922,16.503999999999998,12.502,15.916C12.11,15.384,11.928,14.726,11.928,13.928C11.928,13.116,12.11,12.458,12.502,11.926C12.922,11.338,13.524,11.044,14.294,11.044ZM22.722,10.106C21.63,10.106,20.832,10.568,20.314,11.492L20.314,10.302L19.264,10.302L19.264,20.312L20.384,20.312L20.384,16.224C20.944,17.232,21.742,17.736,22.778,17.736C23.814,17.736,24.612,17.344,25.2,16.588C25.732,15.888,26.012,15.006,26.012,13.942C26.012,12.85,25.732,11.968,25.186,11.268C24.584,10.484,23.758,10.106,22.722,10.106ZM22.582,11.03C23.352,11.03,23.94,11.31,24.346,11.898C24.682,12.402,24.864,13.088,24.864,13.942C24.864,14.81,24.682,15.496,24.318,16C23.912,16.532,23.324,16.811999999999998,22.54,16.811999999999998C21.868,16.811999999999998,21.35,16.546,20.958,16.042C20.538,15.524,20.342,14.852,20.342,14.012L20.342,13.872C20.342,13.06,20.524,12.388,20.888,11.884C21.28,11.31,21.854,11.03,22.582,11.03ZM26.67,10.302L29.54,17.372L28.294,20.312L29.512,20.312L33.474,10.302L32.242,10.302L30.1,16.014L27.888,10.302L26.67,10.302ZM37.59,10.106C37.086,10.106,36.652,10.26,36.274,10.568C35.966,10.806,35.714,11.142,35.518,11.562L35.518,10.302L34.412,10.302L34.412,17.54L35.518,17.54L35.518,13.704C35.518,13.032,35.7,12.458,36.092,11.982C36.47,11.478,36.946,11.24,37.506,11.24C37.856,11.24,38.22,11.282,38.584,11.394L38.584,10.274000000000001C38.318,10.161999999999999,37.982,10.106,37.59,10.106ZM40.446,7.572C40.208,7.572,40.012,7.642,39.844,7.81C39.676,7.95,39.606,8.146,39.606,8.398C39.606,8.636,39.676,8.832,39.844,9C40.012,9.154,40.208,9.238,40.446,9.238C40.684,9.238,40.88,9.154,41.048,9C41.216,8.832,41.3,8.636,41.3,8.398C41.3,8.146,41.216,7.95,41.048,7.81C40.88,7.642,40.684,7.572,40.446,7.572ZM39.886,10.302L39.886,17.54L41.006,17.54L41.006,10.302L39.886,10.302ZM46.088,10.106C45.08,10.106,44.282,10.456,43.694,11.17C43.106,11.842,42.826,12.696,42.826,13.76C42.826,14.81,43.106,15.664,43.694,16.336C44.282,17.022,45.08,17.372,46.088,17.372C47.18,17.372,47.992,16.881999999999998,48.524,15.916L48.524,17.189999999999998C48.524,18.786,47.796,19.598,46.34,19.598C45.682,19.598,45.192,19.472,44.87,19.234C44.548,19.01,44.338,18.646,44.254,18.156L43.134,18.156C43.26,18.94,43.582,19.528,44.1,19.92C44.604,20.312,45.36,20.508,46.34,20.508C48.538,20.508,49.644,19.346,49.644,17.036L49.644,10.302L48.524,10.302L48.524,11.548C47.992,10.582,47.18,10.106,46.088,10.106ZM46.256,11.03C46.97,11.03,47.53,11.282,47.95,11.814C48.342,12.29,48.538,12.948,48.538,13.76C48.538,14.544,48.342,15.188,47.95,15.678C47.53,16.182000000000002,46.97,16.433999999999997,46.242,16.433999999999997C45.458,16.433999999999997,44.884,16.154,44.492,15.622C44.142,15.146,43.974,14.516,43.974,13.76C43.974,12.948,44.17,12.29,44.562,11.814C44.968,11.282,45.528,11.03,46.256,11.03ZM51.38,7.348L51.38,17.54L52.5,17.54L52.5,13.41C52.5,12.738,52.682,12.164,53.06,11.716C53.424,11.268,53.886,11.044,54.446,11.044C55.048,11.044,55.51,11.226,55.846,11.59C56.154,11.954,56.322,12.472,56.322,13.144L56.322,17.54L57.442,17.54L57.442,12.976C57.442,12.052,57.218,11.338,56.77,10.848C56.322,10.344000000000001,55.664,10.106,54.824,10.106C54.334,10.106,53.9,10.218,53.508,10.442C53.088,10.68,52.752,11.03,52.5,11.492L52.5,7.348L51.38,7.348ZM61.096,7.964L59.99,8.426L59.99,10.302L58.534,10.302L58.534,11.24L59.99,11.24L59.99,15.846C59.99,16.392,60.102,16.798000000000002,60.34,17.078C60.592,17.386,61.026,17.54,61.614,17.54L62.706,17.54L62.706,16.602L61.782,16.602C61.53,16.602,61.348,16.532,61.25,16.42C61.138,16.308,61.096,16.112000000000002,61.096,15.846L61.096,11.24L62.888,11.24L62.888,10.302L61.096,10.302L61.096,7.964Z" fill="#8A94A6" fill-opacity="1"/></g><g clip-path="url(#master_svg0_105_2504)"><rect x="74" y="0" width="25" height="25" rx="0" fill="#000000" fill-opacity="0"/><g><path d="M84.390625,3C78.867765,3,74.390625,7.47714,74.390625,13C74.390625,18.5229,78.867765,23,84.390625,23C89.91352499999999,23,94.390625,18.5229,94.390625,13C94.390625,7.47714,89.91352499999999,3,84.390625,3ZM89.113725,16.982C89.049625,17.057299999999998,87.509925,18.826,84.684325,18.826C81.269295,18.826,78.858325,16.275199999999998,78.858325,12.95633C78.858325,9.67798,81.358485,7.17403,84.655225,7.17403C87.355025,7.17403,88.766625,8.67867,88.825425,8.742740000000001C88.897825,8.82165,88.942025,8.92234,88.951025,9.02904C88.960025,9.13574,88.933425,9.242429999999999,88.875325,9.33238C88.875325,9.33238,87.972925,10.729759999999999,87.972925,10.729759999999999C87.809625,10.98246,87.457825,11.02617,87.237725,10.8223C87.228325,10.81367,86.167925,9.8594,84.742525,9.8594C82.883005,9.8594,81.762035,11.21323,81.762035,12.92722C81.762035,14.5241,82.790825,16.1406,84.757125,16.1406C86.317425,16.1406,87.389325,14.9979,87.400025,14.9864C87.606925,14.762,87.966925,14.7834,88.146225,15.0288C88.146225,15.0288,89.136025,16.3825,89.136025,16.3825C89.20032499999999,16.470399999999998,89.233025,16.5774,89.22902500000001,16.6861C89.224925,16.7949,89.184325,16.8991,89.113725,16.982Z" fill="#8A94A6" fill-opacity="1"/></g></g><g><path d="M113.34,7.348C112.332,7.348,111.506,7.684,110.89,8.356C110.274,9.014,109.952,9.91,109.952,11.03L111.1,11.03C111.114,10.148,111.324,9.475999999999999,111.716,9.027999999999999C112.08,8.552,112.612,8.328,113.298,8.328C113.94200000000001,8.328,114.46,8.496,114.824,8.832C115.188,9.168,115.37,9.629999999999999,115.37,10.246C115.37,10.89,115.104,11.492,114.6,12.038C114.334,12.318,113.816,12.724,113.032,13.284C111.968,14.012,111.254,14.614,110.862,15.062C110.19,15.804,109.868,16.630000000000003,109.868,17.54L116.532,17.54L116.532,16.518L111.282,16.518C111.464,15.846,112.19200000000001,15.076,113.466,14.222C114.502,13.522,115.188,12.976,115.538,12.612C116.182,11.912,116.518,11.128,116.518,10.26C116.518,9.392,116.21,8.678,115.622,8.146C115.02,7.614,114.264,7.348,113.34,7.348ZM121.6,7.348C120.396,7.348,119.5,7.866,118.898,8.93C118.366,9.826,118.1,11.03,118.1,12.542C118.1,14.054,118.366,15.258,118.898,16.154C119.5,17.204,120.396,17.736,121.6,17.736C122.78999999999999,17.736,123.686,17.204,124.30199999999999,16.154C124.834,15.258,125.1,14.054,125.1,12.542C125.1,11.03,124.834,9.826,124.30199999999999,8.93C123.686,7.866,122.78999999999999,7.348,121.6,7.348ZM121.6,8.328C122.496,8.328,123.14,8.804,123.532,9.77C123.812,10.442,123.966,11.366,123.966,12.542C123.966,13.704,123.812,14.628,123.532,15.314C123.14,16.266,122.496,16.756,121.6,16.756C120.70400000000001,16.756,120.06,16.266,119.668,15.314C119.388,14.628,119.248,13.704,119.248,12.542C119.248,11.366,119.388,10.442,119.668,9.77C120.06,8.804,120.70400000000001,8.328,121.6,8.328ZM130.14,7.348C129.132,7.348,128.306,7.684,127.69,8.356C127.074,9.014,126.752,9.91,126.752,11.03L127.9,11.03C127.914,10.148,128.124,9.475999999999999,128.516,9.027999999999999C128.88,8.552,129.412,8.328,130.098,8.328C130.742,8.328,131.26,8.496,131.624,8.832C131.988,9.168,132.17000000000002,9.629999999999999,132.17000000000002,10.246C132.17000000000002,10.89,131.904,11.492,131.4,12.038C131.13400000000001,12.318,130.61599999999999,12.724,129.832,13.284C128.768,14.012,128.054,14.614,127.662,15.062C126.99,15.804,126.668,16.630000000000003,126.668,17.54L133.332,17.54L133.332,16.518L128.082,16.518C128.264,15.846,128.992,15.076,130.266,14.222C131.302,13.522,131.988,12.976,132.338,12.612C132.982,11.912,133.318,11.128,133.318,10.26C133.318,9.392,133.01,8.678,132.422,8.146C131.82,7.614,131.064,7.348,130.14,7.348ZM138.4975,7.3499C137.5451,7.3499,136.7749,7.61422,136.187,8.16109C135.5717,8.70797,135.2072,9.46448,135.1206,10.43063L136.2553,10.43063C136.3237,9.75615,136.5516,9.24117,136.9435,8.87659C137.3217,8.51201,137.8367,8.34339,138.5112,8.34339C139.1538,8.34339,139.6733,8.49833,140.0379,8.83557C140.3706,9.14091,140.5529,9.57385,140.5529,10.1344C140.5529,10.69495,140.3706,11.12789,140.0242,11.43779C139.6733,11.73401,139.1674,11.8844,138.4975,11.8844L137.7273,11.8844L137.7273,12.7822L138.5385,12.7822C139.2404,12.7822,139.769,12.9371,140.1609,13.2698C140.5529,13.6071,140.7488,14.0719,140.7488,14.6735C140.7488,15.2614,140.5392,15.749,140.1473,16.140900000000002C139.7143,16.5465,139.1401,16.7561,138.4246,16.7561C137.7957,16.7561,137.2762,16.578400000000002,136.8569,16.2412C136.3693,15.8356,136.1004,15.234,136.073,14.4502L134.9109,14.4502C134.9975,15.5667,135.3895,16.4235,136.1004,17.011400000000002C136.702,17.485300000000002,137.4721,17.7405,138.4246,17.7405C139.4637,17.7405,140.3022,17.4443,140.9448,16.8564C141.5783,16.2822,141.8973,15.5393,141.8973,14.6279C141.8973,14.04,141.7286,13.5524,141.39600000000002,13.1604C141.0861,12.7685,140.6395,12.48596,140.0516,12.30367C141.1408,11.94365,141.6876,11.18714,141.6876,10.066040000000001C141.6876,9.2275,141.39600000000002,8.566690000000001,140.8217,8.07906C140.2339,7.58687,139.45,7.3499,138.4975,7.3499ZM153.8023,6.045999999999999L153.8023,8.565999999999999L148.7903,8.565999999999999L148.7903,15.146L149.79829999999998,15.146L149.79829999999998,14.264L153.8023,14.264L153.8023,19.038L154.8383,19.038L154.8383,14.264L158.8563,14.264L158.8563,15.146L159.86430000000001,15.146L159.86430000000001,8.565999999999999L154.8383,8.565999999999999L154.8383,6.045999999999999L153.8023,6.045999999999999ZM149.79829999999998,13.284L149.79829999999998,9.546L153.8023,9.546L153.8023,13.284L149.79829999999998,13.284ZM154.8383,13.284L154.8383,9.546L158.8563,9.546L158.8563,13.284L154.8383,13.284ZM164.9743,11.814C165.3943,12.416,165.8843,13.214,166.4583,14.194L167.0183,13.34C166.3183,12.36,165.6463,11.492,164.9743,10.722L164.9743,9.812000000000001L166.62630000000001,9.812000000000001L166.62630000000001,8.846L164.9743,8.846L164.9743,6.116L164.0083,6.116L164.0083,8.846L162.0763,8.846L162.0763,9.812000000000001L163.9663,9.812000000000001C163.5463,11.66,162.8323,13.312,161.8383,14.768L162.2583,15.79C162.9723,14.642,163.56029999999998,13.354,164.0083,11.926L164.0083,18.94L164.9743,18.94L164.9743,11.814ZM166.9763,7.642L166.9763,8.552L169.6923,8.552C168.7963,10.078,168.0823,11.016,167.5223,11.38C167.4663,11.408,167.4103,11.436,167.3263,11.464L167.53629999999998,12.29C168.6423,12.248,169.6923,12.192,170.6723,12.136C169.52429999999998,13.424,168.1103,14.362,166.4163,14.964L166.9623,15.804C169.6783,14.796,171.7223,12.892,173.1223,10.120000000000001L172.31029999999998,9.686C172.0303,10.246,171.7083,10.764,171.3443,11.268C170.4763,11.338,169.5943,11.394,168.69830000000002,11.45C169.28629999999998,10.876,169.9583,9.91,170.7283,8.552L174.5643,8.552L174.5643,7.642L171.4563,7.642C171.2603,7.054,171.0503,6.536,170.8403,6.088L169.8043,6.256C170.0563,6.676,170.2803,7.138,170.4763,7.642L166.9763,7.642ZM171.4563,16.098C172.4923,17.078,173.3183,18.002000000000002,173.9343,18.87L174.66230000000002,18.142C173.9623,17.259999999999998,173.0943,16.378,172.0863,15.482C172.9963,14.558,173.79430000000002,13.466,174.4663,12.206L173.6123,11.758C171.9743,14.824,169.5103,16.896,166.2203,17.974L166.7663,18.842C168.5583,18.226,170.1123,17.302,171.4563,16.098ZM179.5763,6.116L179.5763,9.434000000000001C178.59629999999999,9.994,177.4343,10.498000000000001,176.1043,10.918L176.49630000000002,11.828C177.6723,11.394,178.6943,10.918,179.5763,10.414L179.5763,12.416L180.5983,12.416L180.5983,6.116L179.5763,6.116ZM181.45229999999998,7.698L181.45229999999998,8.608L184.4343,8.608L184.4343,10.68L181.8863,10.68L181.8863,11.59L188.0043,11.59L188.0043,10.68L185.4563,10.68L185.4563,8.608L188.3963,8.608L188.3963,7.698L185.4563,7.698L185.4563,6.074L184.4343,6.074L184.4343,7.698L181.45229999999998,7.698ZM176.8743,6.704L176.3423,7.488C177.0983,7.824,177.8263,8.286,178.5543,8.888L179.07229999999998,8.09C178.40030000000002,7.544,177.6723,7.082,176.8743,6.704ZM176.1183,13.2L176.1183,14.124L181.2843,14.124C180.1643,15.104,178.42829999999998,15.916,176.04829999999998,16.546L176.5663,17.4C177.5183,17.092,178.3723,16.742,179.1563,16.378L179.1563,17.554000000000002C179.1563,17.778,179.0023,17.945999999999998,178.7083,18.058L178.9183,18.926C180.6403,18.59,182.1103,18.253999999999998,183.3283,17.89L183.1603,16.994C182.2083,17.302,181.18630000000002,17.582,180.0803,17.805999999999997L180.0803,15.902C181.0043,15.356,181.7603,14.768,182.3483,14.124C183.52429999999998,16.448,185.42829999999998,18.058,188.0743,18.968L188.6483,18.086C187.4583,17.722,186.4223,17.232,185.5403,16.588C186.3243,16.112000000000002,186.99630000000002,15.58,187.58429999999998,14.978L186.8703,14.348C186.31029999999998,14.964,185.6243,15.524,184.8263,16.014C184.2243,15.468,183.7203,14.838,183.3003,14.124L188.5223,14.124L188.5223,13.2L183.1463,13.2C182.9083,12.696,182.6423,12.248,182.3623,11.856L181.4383,12.164C181.69029999999998,12.486,181.9143,12.836,182.1103,13.2L176.1183,13.2ZM200.7443,12.836L191.92430000000002,12.836L191.92430000000002,18.94L192.8903,18.94L192.8903,18.323999999999998L199.7783,18.323999999999998L199.7783,18.94L200.7443,18.94L200.7443,12.836ZM192.8903,17.456L192.8903,15.972L195.8443,15.972L195.8443,17.456L192.8903,17.456ZM196.7963,17.456L196.7963,15.972L199.7783,15.972L199.7783,17.456L196.7963,17.456ZM192.8903,15.16L192.8903,13.676L195.8443,13.676L195.8443,15.16L192.8903,15.16ZM196.7963,13.676L199.7783,13.676L199.7783,15.16L196.7963,15.16L196.7963,13.676ZM194.4583,5.934C193.43630000000002,7.432,192.1343,8.636,190.5663,9.546L191.21030000000002,10.33C191.9103,9.882,192.5683,9.392,193.1843,8.832C193.8283,9.49,194.5703,10.078,195.4103,10.582C193.8423,11.282,192.0223,11.786,189.9223,12.08L190.3563,12.962C192.6663,12.584,194.6823,11.968,196.3903,11.114C198.0143,11.926,199.9743,12.5,202.27030000000002,12.85L202.7043,11.954C200.6323,11.674,198.8543,11.226,197.3423,10.582C198.5743,9.826,199.6243,8.93,200.4923,7.866L200.4923,7.096L194.79430000000002,7.096C195.0183,6.802,195.2423,6.494,195.45229999999998,6.1579999999999995L194.4583,5.934ZM193.78629999999998,8.258L194.0663,7.978L199.24630000000002,7.978C198.4343,8.79,197.4683,9.504,196.3483,10.120000000000001C195.3403,9.588000000000001,194.4863,8.972000000000001,193.78629999999998,8.258ZM205.53230000000002,18.786C206.3443,18.786,206.75029999999998,18.366,206.75029999999998,17.526L206.75029999999998,13.508C207.2543,13.27,207.75830000000002,13.018,208.26229999999998,12.738L208.26229999999998,11.758C207.7723,12.038,207.2683,12.29,206.75029999999998,12.542L206.75029999999998,9.644L208.23430000000002,9.644L208.23430000000002,8.678L206.75029999999998,8.678L206.75029999999998,6.116L205.77030000000002,6.116L205.77030000000002,8.678L204.0763,8.678L204.0763,9.644L205.77030000000002,9.644L205.77030000000002,12.948C205.12630000000001,13.186,204.4823,13.396,203.81029999999998,13.564L204.0623,14.558C204.65030000000002,14.362,205.21030000000002,14.152,205.77030000000002,13.928L205.77030000000002,17.274C205.77030000000002,17.694000000000003,205.5743,17.904,205.1963,17.904C204.8603,17.904,204.5103,17.875999999999998,204.1463,17.834L204.3563,18.786L205.53230000000002,18.786ZM208.73829999999998,8.132L208.73829999999998,9.097999999999999L212.098,9.097999999999999L212.098,11.38L209.00400000000002,11.38L209.00400000000002,12.332L209.74599999999998,12.332C210.138,13.774,210.90800000000002,15.062,212.084,16.21C211.062,17.008,209.80200000000002,17.652,208.3183,18.142L208.79430000000002,18.982C210.362,18.422,211.692,17.708,212.784,16.84C213.736,17.624000000000002,214.926,18.338,216.326,18.954L216.858,18.114C215.52800000000002,17.567999999999998,214.394,16.938000000000002,213.47,16.224C214.60399999999998,15.132,215.416,13.816,215.906,12.276L215.906,11.38L213.078,11.38L213.078,9.097999999999999L216.452,9.097999999999999L216.452,8.132L213.078,8.132L213.078,6.144L212.098,6.144L212.098,8.132L208.73829999999998,8.132ZM210.684,12.332L214.898,12.332C214.436,13.592,213.72199999999998,14.684,212.756,15.622C211.748,14.656,211.048,13.564,210.684,12.332ZM218.38400000000001,9.42L218.38400000000001,10.386L222.808,10.386C221.814,12.934,220.176,15.02,217.90800000000002,16.644L218.454,17.54C220.946,15.692,222.724,13.298,223.76,10.386L223.816,10.386L223.816,18.912L224.824,18.912L224.824,10.386L224.88,10.386C225.832,12.99,227.54000000000002,15.356,230.00400000000002,17.456L230.676,16.602C228.36599999999999,14.782,226.756,12.71,225.832,10.386L230.26999999999998,10.386L230.26999999999998,9.42L224.824,9.42L224.824,6.074L223.816,6.074L223.816,9.42L218.38400000000001,9.42ZM227.078,6.102L226.29399999999998,6.592C227.106,7.446,227.736,8.23,228.212,8.943999999999999L229.01,8.370000000000001C228.562,7.726,227.918,6.97,227.078,6.102ZM242.128,7.754L242.128,11.632L239.944,11.632L239.944,7.754L242.128,7.754ZM242.128,12.598L242.128,18.912L243.094,18.912L243.094,12.598L244.76,12.598L244.76,11.632L243.094,11.632L243.094,7.754L244.382,7.754L244.382,6.802L237.732,6.802L237.732,7.754L238.964,7.754L238.964,11.632L237.424,11.632L237.424,12.598L238.95,12.598C238.866,15.188,238.11,17.078,236.68200000000002,18.282L237.424,18.954C238.992,17.596,239.818,15.482,239.93,12.598L242.128,12.598ZM233.952,7.838C233.602,9.868,232.888,11.674,231.796,13.242L232.328,14.11C232.678,13.634,233,13.13,233.29399999999998,12.598L233.29399999999998,18.45L234.21800000000002,18.45L234.21800000000002,17.344L236.626,17.344L236.626,11.002L234.036,11.002C234.414,10.022,234.708,8.958,234.904,7.838L237.116,7.838L237.116,6.858L232.272,6.858L232.272,7.838L233.952,7.838ZM234.21800000000002,16.462L234.21800000000002,11.898L235.688,11.898L235.688,16.462L234.21800000000002,16.462ZM253.678,9.027999999999999L253.174,9.783999999999999C254.546,10.456,255.876,11.352,257.164,12.486L257.71000000000004,11.646C256.506,10.61,255.162,9.742,253.678,9.027999999999999ZM250.878,8.972000000000001C249.786,10.008,248.4,10.848,246.72,11.478L247.154,12.388C248.89,11.674,250.332,10.764,251.48,9.672L250.878,8.972000000000001ZM252.348,6.045999999999999L251.242,6.214C251.452,6.578,251.648,6.984,251.83,7.432L246.566,7.432L246.566,10.232L247.574,10.232L247.574,8.370000000000001L257.06600000000003,8.370000000000001L257.06600000000003,10.246L258.074,10.246L258.074,7.432L252.894,7.432C252.726,6.914,252.544,6.452,252.348,6.045999999999999ZM250.822,11.254L250.822,12.276C250.808,12.528,250.794,12.78,250.766,13.046L247.098,13.046L247.098,13.998L250.612,13.998C250.444,14.712,250.178,15.342,249.8,15.902C249.1,16.784,247.882,17.497999999999998,246.146,18.044L246.692,18.912C248.484,18.352,249.772,17.567999999999998,250.556,16.573999999999998C251.088,15.874,251.452,15.006,251.662,13.998L254.42,13.998L254.42,17.637999999999998C254.42,18.422,254.84,18.814,255.68,18.814L256.87,18.814C257.654,18.814,258.13,18.52,258.284,17.932000000000002C258.368,17.666,258.438,16.951999999999998,258.522,15.804L257.598,15.538C257.598,16.168,257.57,16.756,257.514,17.316000000000003C257.43,17.68,257.22,17.862000000000002,256.87,17.862000000000002L255.834,17.862000000000002C255.554,17.862000000000002,255.414,17.722,255.414,17.47L255.414,13.046L251.802,13.046L251.844,12.276L251.844,11.254L250.822,11.254ZM271.22,5.962C270.60400000000004,6.858,270.128,7.824,269.778,8.846C269.358,10.05,269.16200000000003,11.268,269.16200000000003,12.514C269.16200000000003,13.732,269.358,14.95,269.778,16.154C270.128,17.162,270.60400000000004,18.128,271.22,19.038L272.2,19.038C271.64,18.1,271.192,17.134,270.87,16.14C270.45,14.908,270.254,13.69,270.254,12.5C270.254,11.296,270.45,10.091999999999999,270.87,8.86C271.192,7.852,271.64,6.886,272.2,5.962L271.22,5.962ZM279.144,6.102L279.144,17.4L274.10400000000004,17.4L274.10400000000004,18.380000000000003L286.56399999999996,18.380000000000003L286.56399999999996,17.4L280.18,17.4L280.18,11.408L285.374,11.408L285.374,10.428L280.18,10.428L280.18,6.102L279.144,6.102ZM293.35400000000004,8.146L300.34000000000003,8.146L300.34000000000003,7.208L293.872,7.208C294.026,6.9,294.18,6.564,294.32,6.214L293.312,6.004C292.71000000000004,7.488,291.94,8.678,290.988,9.588000000000001L291.632,10.358C291.954,10.036,292.262,9.686,292.55600000000004,9.308C292.528,10.4,292.45799999999997,11.492,292.346,12.57L290.848,12.57L290.848,13.508L292.248,13.508C292.108,14.628,291.91200000000003,15.748,291.688,16.868000000000002L298.352,16.868000000000002C298.324,17.092,298.296,17.246000000000002,298.26800000000003,17.316000000000003C298.128,17.637999999999998,297.904,17.848,297.596,17.945999999999998C297.288,18.016,296.952,18.058,296.574,18.058C296.154,18.058,295.692,18.03,295.188,18.002000000000002L295.48199999999997,18.926C295.94399999999996,18.926,296.35,18.912,296.7,18.912C297.456,18.912,298.01599999999996,18.814,298.408,18.618C298.8,18.394,299.06600000000003,18.058,299.206,17.61C299.23400000000004,17.497999999999998,299.276,17.259999999999998,299.318,16.868000000000002L300.536,16.868000000000002L300.536,16L299.38800000000003,16C299.43,15.356,299.472,14.53,299.528,13.508L300.76,13.508L300.76,12.57L299.57,12.57C299.598,11.618,299.64,10.526,299.682,9.294L292.57,9.294C292.85,8.93,293.102,8.552,293.35400000000004,8.146ZM293.2,13.508L298.576,13.508C298.52,14.544,298.478,15.37,298.43600000000004,16L292.808,16C292.962,15.244,293.08799999999997,14.404,293.2,13.508ZM298.618,12.57L293.298,12.57C293.368,11.828,293.424,11.03,293.466,10.190000000000001L298.702,10.190000000000001C298.674,11.044,298.64599999999996,11.842,298.618,12.57ZM295.342,10.428L294.712,11.044C295.454,11.534,296.04200000000003,11.996,296.462,12.444L297.106,11.8C296.63,11.338,296.04200000000003,10.876,295.342,10.428ZM295.216,13.676L294.586,14.292C295.31399999999996,14.838,295.88800000000003,15.356,296.308,15.832L296.966,15.188C296.49,14.684,295.916,14.18,295.216,13.676ZM288.94399999999996,6.34L288.216,7.026C289.14,7.642,289.85400000000004,8.23,290.372,8.79L291.086,8.062000000000001C290.498,7.474,289.784,6.9,288.94399999999996,6.34ZM288.72,9.742L287.99199999999996,10.442C288.916,11.086,289.63,11.674,290.148,12.234L290.86199999999997,11.52C290.274,10.932,289.56,10.33,288.72,9.742ZM290.16200000000003,13.844C289.574,15.384,288.88800000000003,16.881999999999998,288.10400000000004,18.352L289.04200000000003,18.758C289.77,17.33,290.442,15.804,291.03,14.18L290.16200000000003,13.844ZM302.44,5.962C303,6.886,303.43399999999997,7.852,303.77,8.86C304.176,10.091999999999999,304.38599999999997,11.296,304.38599999999997,12.5C304.38599999999997,13.69,304.176,14.908,303.77,16.14C303.43399999999997,17.134,303,18.1,302.44,19.038L303.41999999999996,19.038C304.022,18.128,304.498,17.162,304.86199999999997,16.154C305.26800000000003,14.95,305.478,13.732,305.478,12.514C305.478,11.268,305.26800000000003,10.05,304.86199999999997,8.846C304.498,7.824,304.022,6.858,303.41999999999996,5.962L302.44,5.962ZM320.22,11.142L325.778,11.142L325.778,12.668L320.22,12.668L320.22,11.142ZM325.778,13.55L325.778,15.034L320.22,15.034L320.22,13.55L325.778,13.55ZM325.778,15.916L325.778,17.512C325.778,17.848,325.596,18.016,325.23199999999997,18.016C324.77,18.016,324.26599999999996,17.988,323.73400000000004,17.96L323.986,18.884L325.554,18.884C326.33799999999997,18.856,326.73,18.506,326.73,17.82L326.73,10.26L320.23400000000004,10.26C320.57,9.742,320.86400000000003,9.196,321.144,8.636L328.522,8.636L328.522,7.656L321.56399999999996,7.656C321.76,7.166,321.928,6.662,322.096,6.144L321.074,6.018C320.906,6.564,320.696,7.11,320.45799999999997,7.656L316.286,7.656L316.286,8.636L319.996,8.636C319.03,10.442,317.672,12.038,315.908,13.438L316.56600000000003,14.292C317.574,13.48,318.48400000000004,12.57,319.26800000000003,11.59L319.26800000000003,18.912L320.22,18.912L320.22,15.916L325.778,15.916ZM330.496,6.66175L330.496,18.9573L331.476,18.9573L331.476,7.62789L333.786,7.62789C333.422,8.79,332.902,10.10706,332.246,11.56539C333.226,12.7412,333.714,13.8167,333.714,14.7692C333.714,15.0654,333.618,15.275,333.449,15.3981C333.267,15.512,332.916,15.5804,332.39599999999996,15.6123C332.26,15.6123,332.077,15.5804,331.85400000000004,15.553L332.187,16.578400000000002C333.199,16.560200000000002,333.89599999999996,16.3961,334.288,16.0726C334.57,15.8082,334.721,15.3707,334.721,14.7692C334.666,13.762,334.178,12.6409,333.281,11.41044C333.868,10.0387,334.374,8.73531,334.794,7.4775L334.794,6.66175L330.496,6.66175ZM336.443,10.16175L340.577,10.16175L340.577,11.74768L336.443,11.74768L336.443,10.16175ZM340.577,9.24117L336.443,9.24117L336.443,7.62789L340.577,7.62789L340.577,9.24117ZM338.057,12.6683C338.531,15.2887,339.943,17.344,342.26800000000003,18.8297L342.828,17.950200000000002C341.76599999999996,17.3167,340.923,16.560200000000002,340.281,15.6806C341.078,15.275,341.794,14.6871,342.43600000000004,13.9306L341.78,13.2698C341.151,14.0263,340.49,14.5869,339.82,14.9651C339.41499999999996,14.2679,339.132,13.4977,338.964,12.6683L341.557,12.6683L341.557,6.67542L335.45,6.67542L335.45,17.512700000000002C335.45,17.6539,335.341,17.767899999999997,335.145,17.836199999999998L335.382,18.7021C336.908,18.2965,338.166,17.877200000000002,339.173,17.4443L338.95,16.505499999999998C338.125,16.883699999999997,337.286,17.2073,336.443,17.458L336.443,12.6683L338.057,12.6683ZM347.926,6.242C347.03,8.916,345.714,11.044,343.964,12.64L344.748,13.326C346.456,11.786,347.81399999999996,9.546,348.85,6.606L347.926,6.242ZM352.7,13.662L351.78999999999996,13.97C352.378,14.81,352.938,15.734,353.48400000000004,16.742C351.48199999999997,17.064,349.34000000000003,17.302,347.058,17.442C348.262,15.93,349.466,13.844,350.66999999999996,11.184L349.69,10.848C347.996,14.684,346.596,16.896,345.476,17.484L345.658,18.464C348.71000000000004,18.268,351.46799999999996,17.988,353.932,17.596C354.142,18.016,354.352,18.464,354.562,18.94L355.5,18.52C354.716,16.798000000000002,353.79200000000003,15.174,352.7,13.662ZM352.49,6.144L351.63599999999997,6.62C352.448,9.364,353.904,11.618,355.99,13.354L356.704,12.528C354.702,10.876,353.302,8.748000000000001,352.49,6.144ZM359.392,12.08L359.392,16.392L365.566,16.392L365.566,12.08L359.392,12.08ZM364.6,15.496L360.372,15.496L360.372,12.99L364.6,12.99L364.6,15.496ZM368.002,18.842C368.954,18.842,369.43,18.338,369.43,17.344L369.43,6.69L358.902,6.69L358.902,7.67L368.422,7.67L368.422,17.064C368.422,17.624000000000002,368.198,17.904,367.778,17.904L365.818,17.875999999999998L366.07,18.842L368.002,18.842ZM358.342,9.448L358.342,10.358L366.952,10.358L366.952,9.448L358.342,9.448Z" fill="#8A94A6" fill-opacity="1"/></g></g></svg>