<svg xmlns="http://www.w3.org/2000/svg" xmlns:xlink="http://www.w3.org/1999/xlink" fill="none" version="1.1" width="16" height="16" viewBox="0 0 16 16"><defs><clipPath id="master_svg0_134_6865"><rect x="0" y="0" width="16" height="16" rx="4"/></clipPath></defs><g clip-path="url(#master_svg0_134_6865)"><g><path d="M9.00042,3.9528L7.00042,3.9528C6.86252,3.9528,6.74496,3.9986,6.64664,4.09167C6.54923,4.18473,6.50021,4.2972,6.50021,4.4292L6.50021,4.9041999999999994L9.500350000000001,4.9041999999999994L9.500350000000001,4.4292C9.500350000000001,4.2972,9.45105,4.18473,9.35378,4.09167C9.25567,3.9986,9.138110000000001,3.9528,9.00042,3.9528L9.00042,3.9528ZM11.00021,11.5708L11.00021,5.857L5,5.857L5,11.57093C5,11.70147,5.0491600000000005,11.81393,5.1465700000000005,11.907C5.244759999999999,12.00007,5.36245,12.04727,5.50042,12.04727L10.50021,12.04727C10.63818,12.04727,10.75629,12.00007,10.853570000000001,11.907C10.951889999999999,11.81393,11.00042,11.70147,11.00021,11.5708L11.00021,11.5708ZM7.00021,3L8.99979,3C9.41385,3,9.76755,3.138867,10.060559999999999,3.418C10.35336,3.6972,10.499929999999999,4.03333,10.499929999999999,4.4277999999999995L10.499929999999999,4.90413L12.49979,4.90413C12.63769,4.90413,12.75587,4.9514,12.85315,5.04307C12.95126,5.13747,13,5.2486,13,5.38053C13,5.51253,12.95126,5.6236,12.85315,5.71807C12.75587,5.80973,12.63776,5.85693,12.49979,5.85693L11.99979,5.85693L11.99979,11.57087C11.99979,11.96527,11.85336,12.3014,11.56056,12.58053C11.26755,12.85973,10.91371,13,10.499929999999999,13L5.50021,13C5.08601,13,4.73259,12.85973,4.43958,12.58053C4.1465700000000005,12.3014,4.00021,11.96527,4.00021,11.57087L4.00021,5.85687L3.50021,5.85687C3.362308,5.85687,3.244755,5.809670000000001,3.146573,5.718C3.049021,5.6236,3,5.51247,3,5.38053C3,5.2486,3.0489511,5.13753,3.146573,5.04307C3.244755,4.9514,3.362308,4.90413,3.50021,4.90413L5.50021,4.90413L5.50021,4.4277999999999995C5.50021,4.03333,5.64664,3.6972,5.939579999999999,3.418067C6.23245,3.138867,6.5858,3,7.00021,3Z" fill="#3B82F6" fill-opacity="1"/></g></g></svg>
