<svg xmlns="http://www.w3.org/2000/svg" xmlns:xlink="http://www.w3.org/1999/xlink" fill="none" version="1.1" width="16" height="16" viewBox="0 0 16 16"><defs><clipPath id="master_svg0_102_10205"><rect x="16" y="16" width="16" height="16" rx="0"/></clipPath></defs><g transform="matrix(-1,0,0,-1,32,32)" clip-path="url(#master_svg0_102_10205)"><g><path d="M25.71350390625,22.37531298828125C25.97317390625,21.21531298828125,26.15450390625,20.37631298828125,26.25783390625,19.85664298828125C26.51783390625,18.54831298828125,25.84267390625,17.33331298828125,24.50450390625,17.33331298828125C23.29783390625,17.33331298828125,22.69183390625,17.93297998828125,22.33450390625,19.13164298828125L22.325333906250002,19.16664298828125C22.11083390625,20.13631298828125,21.782833906249998,20.88798298828125,21.34867390625,21.42581298828125C20.89138390625,21.99371298828125,20.20678390625,22.33086298828125,19.47783390625,22.34714298828125L19.13550390625,22.354482988281248C18.31917090625,22.37198298828125,17.66650390625,23.04398298828125,17.66650390625,23.867142988281252L17.66650390625,28.83331298828125C17.66650390625,29.84581298828125,18.48067090625,30.66661298828125,19.48517390625,30.66661298828125L25.93083390625,30.66661298828125C27.25483390625,30.66661298828125,28.436703906250003,29.829612988281248,28.88580390625,28.57411298828125L30.22480390625,24.830642988281248C30.56550390625,23.87814298828125,30.07580390625,22.82748298828125,29.13100390625,22.483982988281248C28.93330390625,22.412092988281252,28.72450390625,22.37531298828125,28.51400390625,22.37531298828125L25.71350390625,22.37531298828125ZM24.50383390625,18.33331298828125C25.11717390625,18.33331298828125,25.43350390625,18.90331298828125,25.28333390625,19.660312988281248C25.16500390625,20.256312988281252,24.93983390625,21.29198298828125,24.608003906249998,22.76448298828125C24.537503906250002,23.07731298828125,24.77300390625,23.37531298828125,25.091003906250002,23.37531298828125L28.50770390625,23.37531298828125C28.603003906250002,23.37531298828125,28.69770390625,23.39198298828125,28.787503906250002,23.42481298828125C29.216303906249998,23.58081298828125,29.438703906249998,24.05848298828125,29.28400390625,24.49148298828125L27.94700390625,28.23481298828125C27.64017390625,29.09411298828125,26.83267390625,29.66661298828125,25.928003906249998,29.66661298828125L19.492003906249998,29.66661298828125C19.03600390625,29.66661298828125,18.66650390625,29.29351298828125,18.66650390625,28.83331298828125L18.66650390625,23.867142988281252C18.66650390625,23.58798298828125,18.88750390625,23.36014298828125,19.16383390625,23.35431298828125L19.50550390625,23.34698298828125C20.52493390625,23.32398298828125,21.48213390625,22.85184298828125,22.12083390625,22.05698298828125C22.65750390625,21.39131298828125,23.04500390625,20.50531298828125,23.29067390625,19.40264298828125C23.53267390625,18.59898298828125,23.80533390625,18.33331298828125,24.50383390625,18.33331298828125Z" fill="#697B98" fill-opacity="1"/></g></g></svg>
