<svg xmlns="http://www.w3.org/2000/svg" xmlns:xlink="http://www.w3.org/1999/xlink" fill="none" version="1.1" width="16" height="16" viewBox="0 0 16 16"><defs><clipPath id="master_svg0_102_13600"><rect x="0" y="0" width="16" height="16" rx="0"/></clipPath></defs><g clip-path="url(#master_svg0_102_13600)"><g><path d="M3,13.1654L13,13.1654L13,14L3,14L3,13.1654ZM3.711032,12.4953L3.828995,12.4953L6.43231,11.66068C6.4917,11.66068,6.55109,11.60083,6.6096699999999995,11.5418L12.52652,5.5789C12.60047,5.49714,12.6424,5.39107,12.64449,5.28046C12.64221,5.17014,12.60029,5.0644,12.52652,4.98285L10.692,3.134048C10.51464,2.9553172,10.27791,2.9553172,10.10055,3.134048L4.1837,9.09695C4.12512,9.15598,4.12512,9.21583,4.06573,9.275680000000001L3.237553,11.89926C3.178165,12.07799,3.237553,12.19769,3.355516,12.31657C3.474292,12.43545,3.5922549999999998,12.4953,3.711032,12.4953ZM4.89392,9.63396L10.39668,4.08837L11.63895,5.340310000000001L8.88757,8.113109999999999L6.13619,10.8859L4.36186,11.4221L4.89392,9.633140000000001L4.89392,9.63396Z" fill="#8A94A6" fill-opacity="1"/></g></g></svg>
