<svg xmlns="http://www.w3.org/2000/svg" xmlns:xlink="http://www.w3.org/1999/xlink" fill="none" version="1.1" width="16" height="16" viewBox="0 0 16 16"><g><g><g><path d="M9.65166621295929,2.961394L14.49749621295929,11.37148C14.60419621295929,11.62251,14.650796212959289,11.82663,14.66419621295929,12.0387C14.69079621295929,12.5341,14.517496212959289,13.0157,14.177596212959289,13.3863C13.837596212959289,13.7556,13.37769621295929,13.9736,12.87779621295929,14L3.1194362129592896,14C2.9127962129592895,13.9874,2.70616621295929,13.9405,2.5128662129592896,13.8679C1.5463642129592896,13.4781,1.0797762129592896,12.3815,1.4730432129592896,11.43093L6.35221621295929,2.9554489999999998C6.51885621295929,2.6575189999999997,6.7721462129592895,2.400546,7.085426212959289,2.235396C7.99194621295929,1.73268,9.145086212959288,2.0629796,9.65166621295929,2.961394ZM8.57809621295929,8.5038C8.57809621295929,8.820879999999999,8.318136212959288,9.08578,7.99818621295929,9.08578C7.67824621295929,9.08578,7.41161621295929,8.820879999999999,7.41161621295929,8.5038L7.41161621295929,6.63496C7.41161621295929,6.31721,7.67824621295929,6.06024,7.99818621295929,6.06024C8.318136212959288,6.06024,8.57809621295929,6.31721,8.57809621295929,6.63496L8.57809621295929,8.5038ZM7.99818621295929,11.34502C7.67824621295929,11.34502,7.41161621295929,11.08012,7.41161621295929,10.76369C7.41161621295929,10.44594,7.67824621295929,10.1817,7.99818621295929,10.1817C8.318136212959288,10.1817,8.57809621295929,10.44,8.57809621295929,10.75642C8.57809621295929,11.08012,8.318136212959288,11.34502,7.99818621295929,11.34502Z" fill-rule="evenodd" fill="#F04848" fill-opacity="1"/></g></g></g></svg>
