<svg xmlns="http://www.w3.org/2000/svg" xmlns:xlink="http://www.w3.org/1999/xlink" fill="none" version="1.1" width="25" height="25" viewBox="0 0 25 25"><g><g><g style="opacity:0;"></g><g><path d="M7.29167,3.125C7.29167,3.125,17.7083,3.125,17.7083,3.125C20.0095,3.125,21.875,4.99048,21.875,7.29167C21.875,9.59285,20.0095,11.45833,17.7083,11.45833C17.7083,11.45833,7.29167,11.45833,7.29167,11.45833C4.99048,11.45833,3.125,9.59285,3.125,7.29167C3.125,4.99048,4.99048,3.125,7.29167,3.125ZM7.29167,9.375C8.442260000000001,9.375,9.375,8.442260000000001,9.375,7.29167C9.375,6.14107,8.442260000000001,5.20833,7.29167,5.20833C6.14107,5.20833,5.20833,6.14107,5.20833,7.29167C5.20833,8.442260000000001,6.14107,9.375,7.29167,9.375Z" fill-rule="evenodd" fill="#3B82F6" fill-opacity="1"/></g><g style="opacity:0.30000001192092896;"><path d="M7.29167,13.541666984558105C7.29167,13.541666984558105,17.7083,13.541666984558105,17.7083,13.541666984558105C20.0095,13.541666984558105,21.875,15.407146984558105,21.875,17.708336984558105C21.875,20.009516984558104,20.0095,21.874996984558106,17.7083,21.874996984558106C17.7083,21.874996984558106,7.29167,21.874996984558106,7.29167,21.874996984558106C4.99048,21.874996984558106,3.125,20.009516984558104,3.125,17.708336984558105C3.125,15.407146984558105,4.99048,13.541666984558105,7.29167,13.541666984558105ZM17.7083,19.791666984558105C18.8589,19.791666984558105,19.7917,18.858926984558106,19.7917,17.708336984558105C19.7917,16.557736984558105,18.8589,15.624996984558106,17.7083,15.624996984558106C16.5577,15.624996984558106,15.625,16.557736984558105,15.625,17.708336984558105C15.625,18.858926984558106,16.5577,19.791666984558105,17.7083,19.791666984558105Z" fill-rule="evenodd" fill="#3B82F6" fill-opacity="1"/></g></g></g></svg>
