<svg xmlns="http://www.w3.org/2000/svg" xmlns:xlink="http://www.w3.org/1999/xlink" fill="none" version="1.1" width="20" height="20" viewBox="0 0 20 20"><defs><linearGradient x1="0.22240327298641205" y1="0.35533949732780457" x2="1.1835334300994873" y2="1.199258804321289" id="master_svg0_105_3381"><stop offset="0%" stop-color="#75EDA1" stop-opacity="1"/><stop offset="100%" stop-color="#349256" stop-opacity="1"/></linearGradient><filter id="master_svg1_134_5542" filterUnits="objectBoundingBox" color-interpolation-filters="sRGB" x="0" y="0" width="15.66426944732666" height="16.783143997192383"><feFlood flood-opacity="0" result="BackgroundImageFix"/><feBlend mode="normal" in="SourceGraphic" in2="BackgroundImageFix" result="shape"/><feGaussianBlur in="BackgroundImage" stdDeviation="6.1538190841674805"/><feComposite in2="SourceAlpha" operator="in" result="effect1_foregroundBlur"/><feBlend mode="normal" in="SourceGraphic" in2="effect1_foregroundBlur" result="shape"/></filter><linearGradient x1="0.019283602014183998" y1="0.21212466061115265" x2="1.357142686843872" y2="0.9411764740943909" id="master_svg2_105_3376"><stop offset="0%" stop-color="#FFFFFF" stop-opacity="1"/><stop offset="73.4375%" stop-color="#FFFFFF" stop-opacity="0"/><stop offset="100%" stop-color="#FFFFFF" stop-opacity="0"/></linearGradient><linearGradient x1="0.15627333521842957" y1="0.3812747597694397" x2="1.7187987565994263" y2="0.6398016810417175" id="master_svg3_105_3369"><stop offset="0%" stop-color="#FFFFFF" stop-opacity="1"/><stop offset="100%" stop-color="#FFFFFF" stop-opacity="0"/></linearGradient><linearGradient x1="0.028430361300706863" y1="0.1426345258951187" x2="0.667645275592804" y2="0.44093480706214905" id="master_svg4_105_3371"><stop offset="0%" stop-color="#FFFFFF" stop-opacity="1"/><stop offset="100%" stop-color="#FFFFFF" stop-opacity="0"/></linearGradient></defs><g><g><path d="M10.122656484375,14.5655C11.382406484375,14.0899,16.319396484374998,11.72,16.537896484375,3.72987C16.547196484375,3.38947,16.369596484375002,3.06776,16.080496484375,2.88785C12.254986484375,0.5075400000000001,7.409316484375,0.5075400000000001,3.583803484375,2.88785C3.294676484375,3.06776,3.117075194375,3.38947,3.126383834375,3.72987C3.344881484375,11.72,8.281896484375,14.0899,9.541656484375,14.5655C9.729736484375,14.6365,9.934566484375,14.6365,10.122656484375,14.5655C10.122656484375,14.5655,10.122656484375,14.5655,10.122656484375,14.5655Z" fill="url(#master_svg0_105_3381)" fill-opacity="1"/></g><g filter="url(#master_svg1_134_5542)"><path d="M3.17072,5.6864128125C3.17072,5.6864128125,2.563758,6.0332428125,2.563758,6.0332428125C2.215144,6.2324428125,1.99744242,6.6084128125,2.0106843,7.0097028125C2.296496,15.6712828125,8.23171,18.1363828125,9.566980000000001,18.5822828125C9.74258,18.6409828125,9.921669999999999,18.6409828125,10.09729,18.5822828125C11.43255,18.1363828125,17.367800000000003,15.6712828125,17.6536,7.0097028125C17.666800000000002,6.6084128125,17.4491,6.2324428125,17.1005,6.0332428125C17.1005,6.0332428125,16.493499999999997,5.6864128125,16.493499999999997,5.6864128125C12.3658,3.3276928125,7.29847,3.3276928125,3.17072,5.6864128125C3.17072,5.6864128125,3.17072,5.6864128125,3.17072,5.6864128125Z" fill="#6AE092" fill-opacity="0.6000000238418579"/><path d="M3.17072,5.6864128125L2.563758,6.0332428125C2.215144,6.2324428125,1.99744242,6.6084128125,2.0106843,7.0097028125C2.296496,15.6712828125,8.23171,18.1363828125,9.566980000000001,18.5822828125C9.74258,18.6409828125,9.921669999999999,18.6409828125,10.09729,18.5822828125C11.43255,18.1363828125,17.367800000000003,15.6712828125,17.6536,7.0097028125C17.666800000000002,6.6084128125,17.4491,6.2324428125,17.1005,6.0332428125L16.493499999999997,5.6864128125C12.3658,3.3276928125,7.29847,3.3276928125,3.17072,5.6864128125ZM3.2203299999999997,5.7732328125L2.613372,6.1200728125Q2.0912278,6.4184228125,2.11063,7.0064028125Q2.292027,12.5036828125,5.46738,15.8075828125Q7.30772,17.7223828125,9.598659999999999,18.4873828125Q9.83213,18.5653828125,10.06561,18.4873828125Q12.3566,17.722482812499997,14.1969,15.8075828125Q17.3723,12.5035828125,17.5536,7.0064028125Q17.573,6.4184228125,17.0509,6.1200728125L16.4439,5.7732328125Q13.3712,4.0173628125,9.832139999999999,4.0173728125Q6.29309,4.0173728125,3.2203299999999997,5.7732328125Z" fill-rule="evenodd" fill="url(#master_svg2_105_3376)" fill-opacity="1"/></g><g><path d="M13.78215078125,8.5592605625C14.10985078125,8.8869715625,14.10985078125,9.4182965625,13.78215078125,9.7460065625C13.78215078125,9.7460065625,9.86609078125,13.662076562500001,9.86609078125,13.662076562500001C9.70871078125,13.8194365625,9.49527078125,13.907856562500001,9.27271078125,13.907856562500001C9.05015078125,13.907856562500001,8.83671078125,13.8194365625,8.67933078125,13.662076562500001C8.67933078125,13.662076562500001,6.4415847812500004,11.4243165625,6.4415847812500004,11.4243165625C6.11387298125,11.0966065625,6.11387298125,10.5652965625,6.4415847812500004,10.2375665625C6.76929578125,9.9098665625,7.30062078125,9.9098665625,7.62833078125,10.2375665625C7.62833078125,10.2375665625,9.27271078125,11.8819465625,9.27271078125,11.8819465625C9.27271078125,11.8819465625,12.59540078125,8.5592605625,12.59540078125,8.5592605625C12.92311078125,8.2315487625,13.45444078125,8.2315487625,13.78215078125,8.5592605625C13.78215078125,8.5592605625,13.78215078125,8.5592605625,13.78215078125,8.5592605625Z" fill-rule="evenodd" fill="url(#master_svg3_105_3369)" fill-opacity="0.8999999761581421"/><path d="M7.62833078125,10.2375665625L8.92657078125,11.5358065625L9.27271078125,11.8819465625L9.61885078125,11.5358065625L12.59540078125,8.5592605625C12.92311078125,8.2315487625,13.45444078125,8.2315487625,13.78215078125,8.5592605625C14.10985078125,8.8869715625,14.10985078125,9.4182965625,13.78215078125,9.7460065625L9.86609078125,13.662076562500001C9.70871078125,13.8194365625,9.49527078125,13.907856562500001,9.27271078125,13.907856562500001C9.05015078125,13.907856562500001,8.83671078125,13.8194365625,8.67933078125,13.662076562500001L6.4415847812500004,11.4243165625C6.11387298125,11.0966065625,6.11387298125,10.5652965625,6.4415847812500004,10.2375665625C6.76929578125,9.9098665625,7.30062078125,9.9098665625,7.62833078125,10.2375665625ZM13.43600078125,8.9053995625Q13.33360078125,8.8029925625,13.18877078125,8.8029925625Q13.04395078125,8.8029925625,12.94154078125,8.9054005625L9.61885078125,12.2280865625Q9.55000078125,12.2969465625,9.460040781250001,12.3342065625Q9.37008078125,12.3714665625,9.27271078125,12.3714665625Q9.17534078125,12.3714665625,9.08538078125,12.3342065625Q8.99542078125,12.296936562500001,8.92657078125,12.2280865625L7.28219078125,10.5837165625Q7.03495778125,10.3364765625,6.78773278125,10.5836965625Q6.54049678125,10.8309465625,6.78772578125,11.0781765625L9.02545078125,13.3159165625Q9.12789078125,13.4183465625,9.27271078125,13.4183465625Q9.41753078125,13.4183465625,9.51995078125,13.3159365625L13.43600078125,9.3998665625Q13.68324078125,9.1526335625,13.43600078125,8.9053995625Z" fill-rule="evenodd" fill="url(#master_svg4_105_3371)" fill-opacity="1"/></g></g></svg>