<svg xmlns="http://www.w3.org/2000/svg" xmlns:xlink="http://www.w3.org/1999/xlink" fill="none" version="1.1" width="20" height="20" viewBox="0 0 20 20"><defs><linearGradient x1="0.2884615361690521" y1="0.2187499701976776" x2="0.9423076510429382" y2="0.8124999403953552" id="master_svg0_105_3306"><stop offset="0%" stop-color="#FBA47F" stop-opacity="1"/><stop offset="100%" stop-color="#DF6B00" stop-opacity="1"/></linearGradient><filter id="master_svg1_134_5428" filterUnits="objectBoundingBox" color-interpolation-filters="sRGB" x="0" y="0" width="16" height="11"><feFlood flood-opacity="0" result="BackgroundImageFix"/><feBlend mode="normal" in="SourceGraphic" in2="BackgroundImageFix" result="shape"/><feGaussianBlur in="BackgroundImage" stdDeviation="6.528367519378662"/><feComposite in2="SourceAlpha" operator="in" result="effect1_foregroundBlur"/><feBlend mode="normal" in="SourceGraphic" in2="effect1_foregroundBlur" result="shape"/></filter><linearGradient x1="-0.0714285597205162" y1="0.09090907871723175" x2="1.1785714626312256" y2="1.1363636255264282" id="master_svg2_105_3301"><stop offset="0%" stop-color="#FFFFFF" stop-opacity="1"/><stop offset="100%" stop-color="#FFFFFF" stop-opacity="0"/></linearGradient><filter id="master_svg3_134_5427" filterUnits="objectBoundingBox" color-interpolation-filters="sRGB" x="0" y="0" width="2" height="4"><feFlood flood-opacity="0" result="BackgroundImageFix"/><feBlend mode="normal" in="SourceGraphic" in2="BackgroundImageFix" result="shape"/><feGaussianBlur in="BackgroundImage" stdDeviation="11.807037353515625"/><feComposite in2="SourceAlpha" operator="in" result="effect1_foregroundBlur"/><feBlend mode="normal" in="SourceGraphic" in2="effect1_foregroundBlur" result="shape"/></filter><linearGradient x1="0.36751750111579895" y1="0.9395986199378967" x2="0.8978290557861328" y2="-0.15416918694972992" id="master_svg4_105_3292"><stop offset="0%" stop-color="#FFFFFF" stop-opacity="1"/><stop offset="100%" stop-color="#FFFFFF" stop-opacity="0"/></linearGradient><linearGradient x1="0.10236166417598724" y1="1.1881822347640991" x2="1.0304069519042969" y2="0.06955607980489731" id="master_svg5_105_3294"><stop offset="0%" stop-color="#FFFFFF" stop-opacity="1"/><stop offset="100%" stop-color="#FFFFFF" stop-opacity="0"/></linearGradient></defs><g><g><path d="M7.455348056030274,2.675958918991089C8.358988056030274,1.7256939189910887,8.810788056030274,1.2505679189910888,9.341798056030273,1.082426918991089C9.769848056030273,0.9468828189910888,10.230148056030274,0.9468828189910888,10.658198056030274,1.082426918991089C11.189198056030273,1.2505679189910888,11.640998056030273,1.7256949189910888,12.544598056030273,2.675958918991089L16.610998056030276,6.9521089189910885C18.387698056030274,8.820598918991088,19.276098056030275,9.754848918991089,19.302898056030273,10.554918918991088C19.324098056030273,11.190568918991088,19.055798056030273,11.80216891899109,18.571298056030273,12.221868918991088C17.961598056030272,12.749968918991089,16.66309805603027,12.749968918991089,14.066298056030274,12.749968918991089L5.933668056030274,12.749968918991089C3.3368080560302733,12.749968918991089,2.0383580560302734,12.749968918991089,1.4286520560302733,12.221868918991088C0.9442530560302734,11.80216891899109,0.6758027560302734,11.190568918991088,0.6970729860302735,10.554918918991088C0.7238159560302735,9.754848918991089,1.6122220560302734,8.820598918991088,3.3890380560302735,6.9521089189910885L7.455348056030274,2.675958918991089Z" fill="url(#master_svg0_105_3306)" fill-opacity="1"/></g><g filter="url(#master_svg1_134_5428)"><rect x="2" y="8" width="16" height="11" rx="4" fill="#F8B77B" fill-opacity="0.6000000238418579"/><rect x="2.050000000745058" y="8.050000000745058" width="15.899999998509884" height="10.899999998509884" rx="3.949999999254942" stroke="url(#master_svg2_105_3301)" fill-opacity="0" fill="none" stroke-width="0.10000000149011612"/></g><g transform="matrix(0,1,-1,0,27,3)" filter="url(#master_svg3_134_5427)"><rect x="12" y="15" width="2" height="4" rx="1" fill="url(#master_svg4_105_3292)" fill-opacity="1"/><rect x="12.244758158922195" y="15.244758158922195" width="1.5104836821556091" height="3.510483682155609" rx="0.7552418410778046" stroke="url(#master_svg5_105_3294)" fill-opacity="0" fill="none" stroke-width="0.48951631784439087"/></g></g></svg>