<svg xmlns="http://www.w3.org/2000/svg" xmlns:xlink="http://www.w3.org/1999/xlink" fill="none" version="1.1" width="20" height="20" viewBox="0 0 20 20"><defs><linearGradient x1="0.2884615361690521" y1="0.2187499701976776" x2="0.9423076510429382" y2="0.8124999403953552" id="master_svg0_105_3179"><stop offset="0%" stop-color="#917FFB" stop-opacity="1"/><stop offset="100%" stop-color="#3F2DAF" stop-opacity="1"/></linearGradient><filter id="master_svg1_105_3172" filterUnits="objectBoundingBox" color-interpolation-filters="sRGB" x="0" y="0" width="9.646439552307129" height="9.646439552307129"><feFlood flood-opacity="0" result="BackgroundImageFix"/><feBlend mode="normal" in="SourceGraphic" in2="BackgroundImageFix" result="shape"/><feGaussianBlur in="BackgroundImage" stdDeviation="6.324226379394531"/><feComposite in2="SourceAlpha" operator="in" result="effect1_foregroundBlur"/><feBlend mode="normal" in="SourceGraphic" in2="effect1_foregroundBlur" result="shape"/></filter><linearGradient x1="4.564462141587455e-9" y1="0.1875" x2="0.75" y2="0.8124999403953552" id="master_svg2_105_3174"><stop offset="0%" stop-color="#FFFFFF" stop-opacity="1"/><stop offset="99.71504807472229%" stop-color="#FFFFFF" stop-opacity="0"/><stop offset="100%" stop-color="#FFFFFF" stop-opacity="0"/></linearGradient><filter id="master_svg3_105_3165" filterUnits="objectBoundingBox" color-interpolation-filters="sRGB" x="0" y="0" width="15.851792335510254" height="9.246879577636719"><feFlood flood-opacity="0" result="BackgroundImageFix"/><feBlend mode="normal" in="SourceGraphic" in2="BackgroundImageFix" result="shape"/><feGaussianBlur in="BackgroundImage" stdDeviation="6.928313255310059"/><feComposite in2="SourceAlpha" operator="in" result="effect1_foregroundBlur"/><feBlend mode="normal" in="SourceGraphic" in2="effect1_foregroundBlur" result="shape"/></filter><linearGradient x1="0.046882420778274536" y1="0.9110875725746155" x2="1.032930612564087" y2="0.12982523441314697" id="master_svg4_105_3169"><stop offset="0%" stop-color="#FFFFFF" stop-opacity="1"/><stop offset="100%" stop-color="#FFFFFF" stop-opacity="0"/></linearGradient></defs><g><g><path d="M1.97099578125,9.53411626953125C2.16096578125,8.557126269531249,2.25594578125,8.06864626953125,2.4826257812500003,7.68767626953125C2.7848657812499997,7.17971326953125,3.25437578125,6.79269826953125,3.81069578125,6.59297126953125C4.227925781250001,6.44317626953125,4.72555578125,6.44317626953125,5.72084578125,6.44317626953125C5.72084578125,6.44317626953125,14.27902578125,6.44317626953125,14.27902578125,6.44317626953125C15.27432578125,6.44317626953125,15.77202578125,6.44317626953125,16.189225781250002,6.59297126953125C16.745525781250002,6.79269826953125,17.21502578125,7.17971326953125,17.51722578125,7.68767626953125C17.74392578125,8.06864626953125,17.83892578125,8.557126269531249,18.02892578125,9.53411626953125C18.02892578125,9.53411626953125,18.02892578125,9.53411626953125,18.02892578125,9.53411626953125C18.29802578125,10.918376269531251,18.43262578125,11.61048626953125,18.29222578125,12.163396269531251C18.10502578125,12.900596269531249,17.59812578125,13.51554626953125,16.91022578125,13.83999626953125C16.39432578125,14.083346269531251,15.68922578125,14.083346269531251,14.27902578125,14.083346269531251C14.27902578125,14.083346269531251,5.72084578125,14.083346269531251,5.72084578125,14.083346269531251C4.31067578125,14.083346269531251,3.60559578125,14.083346269531251,3.08965578125,13.83999626953125C2.40173578125,13.51554626953125,1.89483878125,12.900596269531249,1.70765078125,12.163396269531251C1.56725878125,11.61048626953125,1.70183678125,10.918376269531251,1.97099578125,9.53411626953125C1.97099578125,9.53411626953125,1.97099578125,9.53411626953125,1.97099578125,9.53411626953125C1.97099578125,9.53411626953125,1.97099578125,9.53411626953125,1.97099578125,9.53411626953125Z" fill="url(#master_svg0_105_3179)" fill-opacity="1"/></g><g filter="url(#master_svg1_105_3172)"><ellipse cx="10.109596729278564" cy="4.9065937995910645" rx="4.8232197761535645" ry="4.8232197761535645" fill="#BFB5FF" fill-opacity="0.6000000238418579"/><ellipse cx="10.109596729278564" cy="4.9065937995910645" rx="4.773219775408506" ry="4.773219775408506" stroke="url(#master_svg2_105_3174)" fill-opacity="0" fill="none" stroke-width="0.10000000149011612"/></g><g transform="matrix(1,0,0,-1,0,39.833251953125)" filter="url(#master_svg3_105_3165)"><path d="M2.08642578125,23.8795659765625C2.08642578125,21.6908959765625,3.86069578125,19.9166259765625,6.04936578125,19.9166259765625C6.04936578125,19.9166259765625,13.97522578125,19.9166259765625,13.97522578125,19.9166259765625C16.16392578125,19.9166259765625,17.93822578125,21.6908959765625,17.93822578125,23.8795659765625C17.93822578125,23.8795659765625,17.93822578125,23.8795659765625,17.93822578125,23.8795659765625C17.93822578125,26.7977959765625,15.57092578125,29.1635059765625,12.65272578125,29.1635059765625C10.76968578125,29.1635059765625,9.25496578125,29.1635059765625,7.37190578125,29.1635059765625C4.45367578125,29.1635059765625,2.08642578125,26.7977959765625,2.08642578125,23.8795659765625C2.08642578125,23.8795659765625,2.08642578125,23.8795659765625,2.08642578125,23.8795659765625C2.08642578125,23.8795659765625,2.08642578125,23.8795659765625,2.08642578125,23.8795659765625Z" fill="#BFB5FF" fill-opacity="0.6000000238418579"/><path d="M2.08642578125,23.8795659765625C2.08642578125,21.6908959765625,3.86069578125,19.9166259765625,6.04936578125,19.9166259765625L13.97522578125,19.9166259765625C16.16392578125,19.9166259765625,17.93822578125,21.6908959765625,17.93822578125,23.8795659765625C17.93822578125,26.7977959765625,15.57092578125,29.1635059765625,12.65272578125,29.1635059765625L7.37190578125,29.1635059765625C4.45367578125,29.1635059765625,2.08642578125,26.7977959765625,2.08642578125,23.8795659765625ZM2.18642578125,23.8795659765625Q2.18642428125,26.026655976562502,3.70552578125,27.5451459765625Q5.22450578125,29.0635059765625,7.37190578125,29.0635059765625L12.65272578125,29.0635059765625Q14.80012578125,29.0635059765625,16.31912578125,27.5451459765625Q17.83822578125,26.026665976562498,17.83822578125,23.8795659765625Q17.83822578125,22.2794859765625,16.70682578125,21.1480559765625Q15.57532578125,20.0166258765625,13.97522578125,20.0166259765625L6.04936578125,20.0166254765625Q4.4492857812499995,20.0166259765625,3.31785578125,21.1480559765625Q2.18642578125,22.2794859765625,2.18642578125,23.8795659765625Z" fill-rule="evenodd" fill="url(#master_svg4_105_3169)" fill-opacity="1"/></g></g></svg>