<svg xmlns="http://www.w3.org/2000/svg" xmlns:xlink="http://www.w3.org/1999/xlink" fill="none" version="1.1" width="20" height="20" viewBox="0 0 20 20"><defs><clipPath id="master_svg0_18_10785"><rect x="0" y="0" width="20" height="20" rx="0"/></clipPath><linearGradient x1="0.2884615361690521" y1="0.2187499701976776" x2="0.9423076510429382" y2="0.8124999403953552" id="master_svg1_18_12054"><stop offset="0%" stop-color="#FDCAB4" stop-opacity="1"/><stop offset="100%" stop-color="#FF993C" stop-opacity="1"/></linearGradient><linearGradient x1="0.5" y1="0" x2="0.5" y2="1" id="master_svg2_18_12040"><stop offset="0%" stop-color="#FBD4B0" stop-opacity="1"/><stop offset="100%" stop-color="#FFF3E8" stop-opacity="1"/></linearGradient></defs><g clip-path="url(#master_svg0_18_10785)"><g><g><g><g><path d="M8.749731701049804,14.720181C9.193721701049805,14.316472,9.415711701049805,14.114621,9.676611701049804,14.0431882C9.886931701049804,13.9856039,10.113091701049804,13.9856039,10.323401701049804,14.0431882C10.584301701049805,14.114621,10.806291701049805,14.316473,11.250261701049805,14.720181L13.248231701049804,16.53685C14.121181701049805,17.33066,14.557691701049805,17.72756,14.570851701049804,18.06746C14.581271701049804,18.33751,14.449441701049805,18.59734,14.211391701049804,18.77564C13.911831701049804,19,13.273831701049804,19,11.997931701049804,19L8.002071701049804,19C6.726141701049805,19,6.088169701049805,19,5.7885997010498045,18.77564C5.550597701049805,18.59734,5.418698021049805,18.33751,5.429148838049804,18.06746C5.442288601049805,17.72756,5.878794701049805,17.33066,6.751811701049805,16.53685L8.749731701049804,14.720181Z" fill="url(#master_svg1_18_12054)" fill-opacity="1"/></g></g><g><path d="M18,8.53846C18,12.1496,14.4183,17,10,17C5.58172,17,2,12.1496,2,8.53846C2,4.92737,5.58172,2,10,2C14.4183,2,18,4.92737,18,8.53846Z" fill="url(#master_svg2_18_12040)" fill-opacity="1"/></g></g><g><ellipse cx="10.000000596046448" cy="7.5" rx="1.1428571939468384" ry="2.5" fill="#FFFFFF" fill-opacity="1"/></g><g><ellipse cx="10.000000596046448" cy="12" rx="1.1428571939468384" ry="1" fill="#FFFFFF" fill-opacity="1"/></g></g></g></svg>
