<?xml version="1.0" encoding="UTF-8"?>
<!DOCTYPE svg PUBLIC "-//W3C//DTD SVG 1.1//EN" "http://www.w3.org/Graphics/SVG/1.1/DTD/svg11.dtd">
<svg xmlns="http://www.w3.org/2000/svg" version="1.1" width="512px" height="512px" style="shape-rendering:geometricPrecision; text-rendering:geometricPrecision; image-rendering:optimizeQuality; fill-rule:evenodd; clip-rule:evenodd" xmlns:xlink="http://www.w3.org/1999/xlink">
<g><path style="opacity:0.998" fill="#0a96fb" d="M 247.5,-0.5 C 253.167,-0.5 258.833,-0.5 264.5,-0.5C 272.348,1.42811 279.014,5.42811 284.5,11.5C 292.746,23.5555 295.579,36.8889 293,51.5C 290.555,66.263 282.555,76.5963 269,82.5C 268.505,84.4727 268.338,86.4727 268.5,88.5C 279.517,90.1362 290.517,91.9696 301.5,94C 310.598,96.7659 316.765,102.599 320,111.5C 320.5,121.828 320.666,132.161 320.5,142.5C 307.603,143.892 299.437,150.892 296,163.5C 296.135,170.905 295.302,177.905 293.5,184.5C 284.852,183.037 276.186,181.704 267.5,180.5C 267.5,178.5 267.5,176.5 267.5,174.5C 285.58,167.199 293.913,153.699 292.5,134C 294.007,113.825 285.34,100.325 266.5,93.5C 245.534,88.9001 230.367,96.2334 221,115.5C 217.699,127.825 217.699,140.158 221,152.5C 225.026,163.192 232.359,170.526 243,174.5C 243.495,176.473 243.662,178.473 243.5,180.5C 235.494,180.571 227.827,181.904 220.5,184.5C 218.833,184.5 217.167,184.5 215.5,184.5C 215.666,176.826 215.5,169.159 215,161.5C 210.518,149.685 202.018,143.351 189.5,142.5C 191.101,131.826 192.267,120.826 193,109.5C 197.257,100.28 204.423,94.7801 214.5,93C 224.409,90.784 234.409,89.284 244.5,88.5C 244.799,86.396 244.466,84.396 243.5,82.5C 230.775,77.2746 222.941,67.9412 220,54.5C 219.333,45.8333 219.333,37.1667 220,28.5C 221.792,22.2487 224.626,16.582 228.5,11.5C 233.729,5.72065 240.062,1.72065 247.5,-0.5 Z"/></g>
<g><path style="opacity:0.992" fill="#92cffc" d="M 228.5,11.5 C 224.626,16.582 221.792,22.2487 220,28.5C 219.333,37.1667 219.333,45.8333 220,54.5C 222.941,67.9412 230.775,77.2746 243.5,82.5C 244.466,84.396 244.799,86.396 244.5,88.5C 234.409,89.284 224.409,90.784 214.5,93C 204.423,94.7801 197.257,100.28 193,109.5C 192.267,120.826 191.101,131.826 189.5,142.5C 180.887,140.847 172.22,139.514 163.5,138.5C 163.201,136.396 163.534,134.396 164.5,132.5C 181.189,124.466 189.189,111.133 188.5,92.5C 189.572,78.8716 185.238,67.3716 175.5,58C 171.691,54.7623 167.358,52.5956 162.5,51.5C 151.19,47.886 140.523,49.2194 130.5,55.5C 127.167,54.1667 124.833,51.8333 123.5,48.5C 155.544,28.0394 190.544,15.7061 228.5,11.5 Z"/></g>
<g><path style="opacity:0.991" fill="#93cffc" d="M 284.5,11.5 C 321.699,16.1198 356.032,28.4531 387.5,48.5C 385.471,50.8585 383.471,53.1918 381.5,55.5C 378.167,54.1667 374.833,52.8333 371.5,51.5C 348.154,46.4232 332.321,55.0899 324,77.5C 323.333,87.1667 323.333,96.8333 324,106.5C 327.813,118.642 335.479,127.309 347,132.5C 347.495,134.473 347.662,136.473 347.5,138.5C 339.819,138.64 332.486,139.973 325.5,142.5C 323.833,142.5 322.167,142.5 320.5,142.5C 320.666,132.161 320.5,121.828 320,111.5C 316.765,102.599 310.598,96.7659 301.5,94C 290.517,91.9696 279.517,90.1362 268.5,88.5C 268.338,86.4727 268.505,84.4727 269,82.5C 282.555,76.5963 290.555,66.263 293,51.5C 295.579,36.8889 292.746,23.5555 284.5,11.5 Z"/></g>
<g><path style="opacity:0.997" fill="#65befc" d="M 123.5,48.5 C 124.833,51.8333 127.167,54.1667 130.5,55.5C 115.35,68.3685 110.183,84.7019 115,104.5C 117.932,117.933 125.765,127.266 138.5,132.5C 139.466,134.396 139.799,136.396 139.5,138.5C 130.995,138.801 122.661,140.135 114.5,142.5C 100.899,143.205 91.7325,149.872 87,162.5C 86.6667,205.833 86.3333,249.167 86,292.5C 83.5617,294.429 81.7283,296.762 80.5,299.5C 80.9825,302.982 82.9825,304.649 86.5,304.5C 86.698,308.092 87.698,311.426 89.5,314.5C 88.5116,354.791 88.1782,395.124 88.5,435.5C 77.0807,424.75 66.7474,413.084 57.5,400.5C 58.664,369.336 58.8307,338.003 58,306.5C 57.4387,305.978 56.772,305.645 56,305.5C 49.3587,309.8 43.0254,309.467 37,304.5C 35.0924,301.794 34.259,298.794 34.5,295.5C 30.9825,295.649 28.9825,293.982 28.5,290.5C 29.5787,287.352 31.412,284.685 34,282.5C 34.0209,238.454 34.6876,194.454 36,150.5C 38.8333,143.667 43.6667,138.833 50.5,136C 62.6543,132.735 74.9876,130.569 87.5,129.5C 87.7989,127.396 87.4656,125.396 86.5,123.5C 76.1748,118.839 68.5081,111.506 63.5,101.5C 60.2374,87.2248 61.0707,73.2248 66,59.5C 76.8206,42.6826 91.9873,36.8493 111.5,42C 115.975,43.4021 119.975,45.5688 123.5,48.5 Z"/></g>
<g><path style="opacity:0.997" fill="#65befb" d="M 446.5,101.5 C 442.16,112.006 434.66,119.34 424,123.5C 423.505,125.473 423.338,127.473 423.5,129.5C 436.753,130.639 449.753,133.139 462.5,137C 468.531,140.694 472.697,145.861 475,152.5C 475.333,195.833 475.667,239.167 476,282.5C 478.781,286.06 479.781,290.06 479,294.5C 477.989,295.337 476.822,295.67 475.5,295.5C 475.043,305.783 469.709,309.949 459.5,308C 457.409,306.325 455.242,305.825 453,306.5C 452.5,338.165 452.333,369.832 452.5,401.5C 443.921,413.415 434.255,424.415 423.5,434.5C 422.822,394.627 422.155,354.627 421.5,314.5C 423.292,311.454 424.292,308.121 424.5,304.5C 428.017,304.649 430.017,302.982 430.5,299.5C 429.272,296.762 427.438,294.429 425,292.5C 424.5,279.504 424.333,266.504 424.5,253.5C 424.831,223.329 424.498,193.329 423.5,163.5C 421.711,155.747 417.378,149.913 410.5,146C 397.941,142.922 385.275,140.422 372.5,138.5C 372.5,136.833 372.5,135.167 372.5,133.5C 381.386,131.389 390.386,130.056 399.5,129.5C 399.799,127.396 399.466,125.396 398.5,123.5C 395.501,122.524 393.168,120.858 391.5,118.5C 397.185,106.162 399.018,93.1621 397,79.5C 395.551,74.6012 393.551,69.9346 391,65.5C 387.629,62.2975 384.462,58.9641 381.5,55.5C 383.471,53.1918 385.471,50.8585 387.5,48.5C 399.45,40.0496 412.45,38.2162 426.5,43C 438.153,48.6535 445.319,57.8201 448,70.5C 449.002,80.9704 448.502,91.3038 446.5,101.5 Z"/></g>
<g><path style="opacity:1" fill="#0166ed" d="M 162.5,51.5 C 145.407,59.5078 137.74,73.0078 139.5,92C 137.791,110.759 145.291,124.259 162,132.5C 162.191,134.708 162.691,136.708 163.5,138.5C 164.524,144.883 162.857,150.383 158.5,155C 151.703,158.949 145.87,157.783 141,151.5C 139.633,147.3 139.133,142.967 139.5,138.5C 139.799,136.396 139.466,134.396 138.5,132.5C 125.765,127.266 117.932,117.933 115,104.5C 110.183,84.7019 115.35,68.3685 130.5,55.5C 140.523,49.2194 151.19,47.886 162.5,51.5 Z"/></g>
<g><path style="opacity:1" fill="#febeab" d="M 371.5,51.5 C 354.653,59.5617 346.653,73.0617 347.5,92C 346.176,111.206 354.176,124.706 371.5,132.5C 371.5,134.5 371.5,136.5 371.5,138.5C 373.711,148.95 369.711,155.283 359.5,157.5C 353.335,156.835 349.502,153.501 348,147.5C 347.502,144.518 347.335,141.518 347.5,138.5C 347.662,136.473 347.495,134.473 347,132.5C 335.479,127.309 327.813,118.642 324,106.5C 323.333,96.8333 323.333,87.1667 324,77.5C 332.321,55.0899 348.154,46.4232 371.5,51.5 Z"/></g>
<g><path style="opacity:1" fill="#fecdbf" d="M 371.5,51.5 C 374.833,52.8333 378.167,54.1667 381.5,55.5C 384.462,58.9641 387.629,62.2975 391,65.5C 393.551,69.9346 395.551,74.6012 397,79.5C 399.018,93.1621 397.185,106.162 391.5,118.5C 386.245,125.132 379.578,129.799 371.5,132.5C 354.176,124.706 346.176,111.206 347.5,92C 346.653,73.0617 354.653,59.5617 371.5,51.5 Z"/></g>
<g><path style="opacity:1" fill="#0177f0" d="M 162.5,51.5 C 167.358,52.5956 171.691,54.7623 175.5,58C 185.238,67.3716 189.572,78.8716 188.5,92.5C 189.189,111.133 181.189,124.466 164.5,132.5C 163.534,134.396 163.201,136.396 163.5,138.5C 162.691,136.708 162.191,134.708 162,132.5C 145.291,124.259 137.791,110.759 139.5,92C 137.74,73.0078 145.407,59.5078 162.5,51.5 Z"/></g>
<g><path style="opacity:1" fill="#ba5d4c" d="M 266.5,93.5 C 245.767,105.119 238.267,122.786 244,146.5C 246.449,160.421 254.282,169.754 267.5,174.5C 267.5,176.5 267.5,178.5 267.5,180.5C 269.29,193.875 263.623,199.708 250.5,198C 244.197,193.878 241.864,188.045 243.5,180.5C 243.662,178.473 243.495,176.473 243,174.5C 232.359,170.526 225.026,163.192 221,152.5C 217.699,140.158 217.699,127.825 221,115.5C 230.367,96.2334 245.534,88.9001 266.5,93.5 Z"/></g>
<g><path style="opacity:1" fill="#c86e59" d="M 266.5,93.5 C 285.34,100.325 294.007,113.825 292.5,134C 293.913,153.699 285.58,167.199 267.5,174.5C 254.282,169.754 246.449,160.421 244,146.5C 238.267,122.786 245.767,105.119 266.5,93.5 Z"/></g>
<g><path style="opacity:0.982" fill="#92cffd" d="M 63.5,101.5 C 68.5081,111.506 76.1748,118.839 86.5,123.5C 87.4656,125.396 87.7989,127.396 87.5,129.5C 74.9876,130.569 62.6543,132.735 50.5,136C 43.6667,138.833 38.8333,143.667 36,150.5C 34.6876,194.454 34.0209,238.454 34,282.5C 31.412,284.685 29.5787,287.352 28.5,290.5C 28.9825,293.982 30.9825,295.649 34.5,295.5C 34.259,298.794 35.0924,301.794 37,304.5C 43.0254,309.467 49.3587,309.8 56,305.5C 56.772,305.645 57.4387,305.978 58,306.5C 58.8307,338.003 58.664,369.336 57.5,400.5C 16.8436,343.419 2.34361,280.085 14,210.5C 21.8855,170.076 38.3855,133.742 63.5,101.5 Z"/></g>
<g><path style="opacity:0.982" fill="#92cffd" d="M 446.5,101.5 C 489.468,156.005 506.968,218.005 499,287.5C 493.521,329.812 478.021,367.812 452.5,401.5C 452.333,369.832 452.5,338.165 453,306.5C 455.242,305.825 457.409,306.325 459.5,308C 469.709,309.949 475.043,305.783 475.5,295.5C 476.822,295.67 477.989,295.337 479,294.5C 479.781,290.06 478.781,286.06 476,282.5C 475.667,239.167 475.333,195.833 475,152.5C 472.697,145.861 468.531,140.694 462.5,137C 449.753,133.139 436.753,130.639 423.5,129.5C 423.338,127.473 423.505,125.473 424,123.5C 434.66,119.34 442.16,112.006 446.5,101.5 Z"/></g>
<g><path style="opacity:1" fill="#94cefa" d="M 391.5,118.5 C 393.168,120.858 395.501,122.524 398.5,123.5C 399.466,125.396 399.799,127.396 399.5,129.5C 390.386,130.056 381.386,131.389 372.5,133.5C 372.5,135.167 372.5,136.833 372.5,138.5C 372.167,138.5 371.833,138.5 371.5,138.5C 371.5,136.5 371.5,134.5 371.5,132.5C 379.578,129.799 386.245,125.132 391.5,118.5 Z"/></g>
<g><path style="opacity:1" fill="#0876ee" d="M 139.5,138.5 C 139.133,142.967 139.633,147.3 141,151.5C 145.87,157.783 151.703,158.949 158.5,155C 162.857,150.383 164.524,144.883 163.5,138.5C 172.22,139.514 180.887,140.847 189.5,142.5C 202.018,143.351 210.518,149.685 215,161.5C 215.5,169.159 215.666,176.826 215.5,184.5C 204.385,186.104 196.552,192.104 192,202.5C 191.5,214.829 191.333,227.162 191.5,239.5C 191.5,270.5 191.5,301.5 191.5,332.5C 191.5,333.167 191.167,333.5 190.5,333.5C 190.5,318.167 190.5,302.833 190.5,287.5C 169.831,287.667 149.164,287.5 128.5,287C 121.572,284.406 117.072,279.573 115,272.5C 114.5,229.168 114.333,185.835 114.5,142.5C 122.661,140.135 130.995,138.801 139.5,138.5 Z"/></g>
<g><path style="opacity:1" fill="#c86e59" d="M 347.5,138.5 C 347.335,141.518 347.502,144.518 348,147.5C 349.502,153.501 353.335,156.835 359.5,157.5C 369.711,155.283 373.711,148.95 371.5,138.5C 371.833,138.5 372.167,138.5 372.5,138.5C 385.275,140.422 397.941,142.922 410.5,146C 417.378,149.913 421.711,155.747 423.5,163.5C 423.666,171.174 423.5,178.841 423,186.5C 415.34,176.991 408.007,177.324 401,187.5C 400.5,209.497 400.333,231.497 400.5,253.5C 400.5,260.167 400.5,266.833 400.5,273.5C 400.5,273.833 400.5,274.167 400.5,274.5C 384.167,274.5 367.833,274.5 351.5,274.5C 340.833,274.5 330.167,274.5 319.5,274.5C 319.5,262.833 319.5,251.167 319.5,239.5C 320.166,234.177 320.499,228.677 320.5,223C 320.711,215.381 320.044,207.881 318.5,200.5C 318.333,185.163 318.5,169.83 319,154.5C 320.505,149.645 323.338,145.812 327.5,143C 326.906,142.536 326.239,142.369 325.5,142.5C 332.486,139.973 339.819,138.64 347.5,138.5 Z"/></g>
<g><path style="opacity:0.999" fill="#0166ed" d="M 114.5,142.5 C 114.333,185.835 114.5,229.168 115,272.5C 117.072,279.573 121.572,284.406 128.5,287C 149.164,287.5 169.831,287.667 190.5,287.5C 190.5,302.833 190.5,318.167 190.5,333.5C 189.207,335.296 187.707,336.963 186,338.5C 184.178,343.829 186.011,346.496 191.5,346.5C 191.5,348.5 191.5,350.5 191.5,352.5C 191.38,374.509 191.714,396.509 192.5,418.5C 192.5,428.833 192.5,439.167 192.5,449.5C 199.833,450.167 207.167,450.833 214.5,451.5C 214.5,440.833 214.5,430.167 214.5,419.5C 214.5,412.5 214.5,405.5 214.5,398.5C 214.5,383.167 214.5,367.833 214.5,352.5C 214.5,351.833 214.5,351.167 214.5,350.5C 225.5,350.5 236.5,350.5 247.5,350.5C 247.5,353.833 247.5,357.167 247.5,360.5C 246.504,360.414 245.671,360.748 245,361.5C 244.5,403.499 244.333,445.499 244.5,487.5C 234.478,488.369 224.478,489.369 214.5,490.5C 214.831,483.137 214.497,475.803 213.5,468.5C 198.211,469.65 182.878,469.817 167.5,469C 164.979,467.442 163.312,465.275 162.5,462.5C 162.832,414.664 162.499,366.997 161.5,319.5C 154.687,318.509 147.687,318.175 140.5,318.5C 140.5,359.167 140.5,399.833 140.5,440.5C 140.5,447.167 140.5,453.833 140.5,460.5C 139.39,463.971 137.39,466.971 134.5,469.5C 118.497,469.667 102.497,469.5 86.5,469C 79.3436,461.628 80.3436,455.628 89.5,451C 94.4814,450.252 99.4814,449.752 104.5,449.5C 106.467,449.739 108.301,449.406 110,448.5C 110.667,404.167 110.667,359.833 110,315.5C 109.439,314.978 108.772,314.645 108,314.5C 101.758,318.404 95.5911,318.404 89.5,314.5C 87.698,311.426 86.698,308.092 86.5,304.5C 82.9825,304.649 80.9825,302.982 80.5,299.5C 81.7283,296.762 83.5617,294.429 86,292.5C 86.3333,249.167 86.6667,205.833 87,162.5C 91.7325,149.872 100.899,143.205 114.5,142.5 Z"/></g>
<g><path style="opacity:1" fill="#ba5d4c" d="M 320.5,142.5 C 322.167,142.5 323.833,142.5 325.5,142.5C 326.239,142.369 326.906,142.536 327.5,143C 323.338,145.812 320.505,149.645 319,154.5C 318.5,169.83 318.333,185.163 318.5,200.5C 313.255,190.376 304.922,185.042 293.5,184.5C 295.302,177.905 296.135,170.905 296,163.5C 299.437,150.892 307.603,143.892 320.5,142.5 Z"/></g>
<g><path style="opacity:1" fill="#feb30b" d="M 243.5,180.5 C 241.864,188.045 244.197,193.878 250.5,198C 263.623,199.708 269.29,193.875 267.5,180.5C 276.186,181.704 284.852,183.037 293.5,184.5C 304.922,185.042 313.255,190.376 318.5,200.5C 320.044,207.881 320.711,215.381 320.5,223C 320.499,228.677 320.166,234.177 319.5,239.5C 311.833,239.5 304.167,239.5 296.5,239.5C 296.5,243.5 296.5,247.5 296.5,251.5C 269.167,251.5 241.833,251.5 214.5,251.5C 214.5,247.5 214.5,243.5 214.5,239.5C 214.333,224.83 214.5,210.163 215,195.5C 216.396,191.208 218.896,187.708 222.5,185C 221.906,184.536 221.239,184.369 220.5,184.5C 227.827,181.904 235.494,180.571 243.5,180.5 Z"/></g>
<g><path style="opacity:1" fill="#d58878" d="M 423.5,163.5 C 424.498,193.329 424.831,223.329 424.5,253.5C 424.167,253.5 423.833,253.5 423.5,253.5C 415.833,253.5 408.167,253.5 400.5,253.5C 400.333,231.497 400.5,209.497 401,187.5C 408.007,177.324 415.34,176.991 423,186.5C 423.5,178.841 423.666,171.174 423.5,163.5 Z"/></g>
<g><path style="opacity:1" fill="#fda904" d="M 215.5,184.5 C 217.167,184.5 218.833,184.5 220.5,184.5C 221.239,184.369 221.906,184.536 222.5,185C 218.896,187.708 216.396,191.208 215,195.5C 214.5,210.163 214.333,224.83 214.5,239.5C 206.833,239.5 199.167,239.5 191.5,239.5C 191.333,227.162 191.5,214.829 192,202.5C 196.552,192.104 204.385,186.104 215.5,184.5 Z"/></g>
<g><path style="opacity:1" fill="#bb5c4b" d="M 191.5,239.5 C 199.167,239.5 206.833,239.5 214.5,239.5C 214.5,243.5 214.5,247.5 214.5,251.5C 211.15,251.335 207.817,251.502 204.5,252C 202.667,252.5 201.5,253.667 201,255.5C 200.333,267.5 200.333,279.5 201,291.5C 202.107,294.113 203.94,295.78 206.5,296.5C 202.69,295.976 200.69,297.643 200.5,301.5C 199.507,309.984 199.174,318.651 199.5,327.5C 198.448,327.351 197.448,327.517 196.5,328C 194.963,329.707 193.296,331.207 191.5,332.5C 191.5,301.5 191.5,270.5 191.5,239.5 Z"/></g>
<g><path style="opacity:1" fill="#be604f" d="M 319.5,239.5 C 319.5,251.167 319.5,262.833 319.5,274.5C 319.5,293.833 319.5,313.167 319.5,332.5C 313.175,325.665 306.341,324.998 299,330.5C 298.5,323.842 298.334,317.175 298.5,310.5C 304.725,308.457 306.559,304.457 304,298.5C 302.89,296.963 301.39,296.297 299.5,296.5C 306.034,293.336 307.034,288.836 302.5,283C 300.975,281.991 299.308,281.491 297.5,281.5C 297.5,281.167 297.5,280.833 297.5,280.5C 297.5,275.833 297.5,271.167 297.5,266.5C 277.833,266.5 258.167,266.5 238.5,266.5C 230.833,266.5 223.167,266.5 215.5,266.5C 243.997,265.668 272.664,265.168 301.5,265C 307.956,257.425 306.289,252.925 296.5,251.5C 296.5,247.5 296.5,243.5 296.5,239.5C 304.167,239.5 311.833,239.5 319.5,239.5 Z"/></g>
<g><path style="opacity:1" fill="#fe4343" d="M 214.5,251.5 C 241.833,251.5 269.167,251.5 296.5,251.5C 306.289,252.925 307.956,257.425 301.5,265C 272.664,265.168 243.997,265.668 215.5,266.5C 215.5,271.5 215.5,276.5 215.5,281.5C 242.833,281.5 270.167,281.5 297.5,281.5C 299.308,281.491 300.975,281.991 302.5,283C 307.034,288.836 306.034,293.336 299.5,296.5C 268.5,296.5 237.5,296.5 206.5,296.5C 203.94,295.78 202.107,294.113 201,291.5C 200.333,279.5 200.333,267.5 201,255.5C 201.5,253.667 202.667,252.5 204.5,252C 207.817,251.502 211.15,251.335 214.5,251.5 Z"/></g>
<g><path style="opacity:1" fill="#febeaa" d="M 400.5,253.5 C 408.167,253.5 415.833,253.5 423.5,253.5C 423.667,265.838 423.5,278.171 423,290.5C 415.707,282.518 408.541,282.518 401.5,290.5C 401.822,284.642 401.489,278.975 400.5,273.5C 400.5,266.833 400.5,260.167 400.5,253.5 Z"/></g>
<g><path style="opacity:1" fill="#efeaee" d="M 215.5,266.5 C 223.167,266.5 230.833,266.5 238.5,266.5C 238.5,271.167 238.5,275.833 238.5,280.5C 258.167,280.5 277.833,280.5 297.5,280.5C 297.5,280.833 297.5,281.167 297.5,281.5C 270.167,281.5 242.833,281.5 215.5,281.5C 215.5,276.5 215.5,271.5 215.5,266.5 Z"/></g>
<g><path style="opacity:1" fill="#fefffe" d="M 238.5,266.5 C 258.167,266.5 277.833,266.5 297.5,266.5C 297.5,271.167 297.5,275.833 297.5,280.5C 277.833,280.5 258.167,280.5 238.5,280.5C 238.5,275.833 238.5,271.167 238.5,266.5 Z"/></g>
<g><path style="opacity:1" fill="#0866eb" d="M 319.5,274.5 C 330.167,274.5 340.833,274.5 351.5,274.5C 351.5,289.167 351.5,303.833 351.5,318.5C 350.508,318.328 349.842,318.662 349.5,319.5C 348.501,361.33 348.168,403.33 348.5,445.5C 338.861,446.697 329.195,447.697 319.5,448.5C 319.455,432.826 319.122,417.159 318.5,401.5C 318.5,385.833 318.5,370.167 318.5,354.5C 319.265,351.904 319.599,349.237 319.5,346.5C 324.989,346.496 326.822,343.829 325,338.5C 322.96,336.63 321.127,334.63 319.5,332.5C 319.5,313.167 319.5,293.833 319.5,274.5 Z"/></g>
<g><path style="opacity:1" fill="#0277ef" d="M 351.5,274.5 C 367.833,274.5 384.167,274.5 400.5,274.5C 400.5,332.5 400.5,390.5 400.5,448.5C 390.801,447.746 381.134,446.746 371.5,445.5C 371.5,451.167 371.5,456.833 371.5,462.5C 370.662,462.158 370.328,461.492 370.5,460.5C 370.5,453.833 370.5,447.167 370.5,440.5C 370.667,400.165 370.5,359.832 370,319.5C 363.924,318.524 357.758,318.19 351.5,318.5C 351.5,303.833 351.5,289.167 351.5,274.5 Z"/></g>
<g><path style="opacity:1" fill="#fccdbf" d="M 423.5,253.5 C 423.833,253.5 424.167,253.5 424.5,253.5C 424.333,266.504 424.5,279.504 425,292.5C 427.438,294.429 429.272,296.762 430.5,299.5C 430.017,302.982 428.017,304.649 424.5,304.5C 424.292,308.121 423.292,311.454 421.5,314.5C 413.765,319.313 407.098,318.313 401.5,311.5C 401.5,304.5 401.5,297.5 401.5,290.5C 408.541,282.518 415.707,282.518 423,290.5C 423.5,278.171 423.667,265.838 423.5,253.5 Z"/></g>
<g><path style="opacity:1" fill="#4dcc5e" d="M 206.5,296.5 C 237.5,296.5 268.5,296.5 299.5,296.5C 301.39,296.297 302.89,296.963 304,298.5C 306.559,304.457 304.725,308.457 298.5,310.5C 298.167,310.5 297.833,310.5 297.5,310.5C 277.833,310.5 258.167,310.5 238.5,310.5C 230.833,310.5 223.167,310.5 215.5,310.5C 215.5,318.5 215.5,326.5 215.5,334.5C 242.662,335.498 269.995,335.831 297.5,335.5C 302.214,335.711 304.88,338.211 305.5,343C 304.501,347.828 301.501,350.328 296.5,350.5C 280.167,350.5 263.833,350.5 247.5,350.5C 236.5,350.5 225.5,350.5 214.5,350.5C 211.482,350.665 208.482,350.498 205.5,350C 203.333,349.167 201.833,347.667 201,345.5C 200.5,330.837 200.333,316.17 200.5,301.5C 200.69,297.643 202.69,295.976 206.5,296.5 Z"/></g>
<g><path style="opacity:1" fill="#ececf1" d="M 238.5,310.5 C 238.5,318.5 238.5,326.5 238.5,334.5C 230.833,334.5 223.167,334.5 215.5,334.5C 215.5,326.5 215.5,318.5 215.5,310.5C 223.167,310.5 230.833,310.5 238.5,310.5 Z"/></g>
<g><path style="opacity:1" fill="#fbfefc" d="M 238.5,310.5 C 258.167,310.5 277.833,310.5 297.5,310.5C 297.5,318.833 297.5,327.167 297.5,335.5C 269.995,335.831 242.662,335.498 215.5,334.5C 223.167,334.5 230.833,334.5 238.5,334.5C 238.5,326.5 238.5,318.5 238.5,310.5 Z"/></g>
<g><path style="opacity:1" fill="#75b2f0" d="M 400.5,273.5 C 401.489,278.975 401.822,284.642 401.5,290.5C 401.5,297.5 401.5,304.5 401.5,311.5C 401.5,357.167 401.5,402.833 401.5,448.5C 402.791,448.263 403.791,448.596 404.5,449.5C 402.901,449.768 401.568,449.434 400.5,448.5C 400.5,390.5 400.5,332.5 400.5,274.5C 400.5,274.167 400.5,273.833 400.5,273.5 Z"/></g>
<g><path style="opacity:0.997" fill="#92cffc" d="M 401.5,311.5 C 407.098,318.313 413.765,319.313 421.5,314.5C 422.155,354.627 422.822,394.627 423.5,434.5C 418.13,439.872 412.463,444.872 406.5,449.5C 405.833,449.5 405.167,449.5 404.5,449.5C 403.791,448.596 402.791,448.263 401.5,448.5C 401.5,402.833 401.5,357.167 401.5,311.5 Z"/></g>
<g><path style="opacity:0.997" fill="#90cefc" d="M 89.5,314.5 C 95.5911,318.404 101.758,318.404 108,314.5C 108.772,314.645 109.439,314.978 110,315.5C 110.667,359.833 110.667,404.167 110,448.5C 108.301,449.406 106.467,449.739 104.5,449.5C 98.8705,445.206 93.5372,440.539 88.5,435.5C 88.1782,395.124 88.5116,354.791 89.5,314.5 Z"/></g>
<g><path style="opacity:1" fill="#92cffc" d="M 161.5,319.5 C 161.5,360.5 161.5,401.5 161.5,442.5C 154.564,441.258 147.564,440.592 140.5,440.5C 140.5,399.833 140.5,359.167 140.5,318.5C 147.687,318.175 154.687,318.509 161.5,319.5 Z"/></g>
<g><path style="opacity:1" fill="#92cffc" d="M 351.5,318.5 C 357.758,318.19 363.924,318.524 370,319.5C 370.5,359.832 370.667,400.165 370.5,440.5C 363.443,440.621 356.443,441.288 349.5,442.5C 349.5,401.5 349.5,360.5 349.5,319.5C 349.842,318.662 350.508,318.328 351.5,318.5 Z"/></g>
<g><path style="opacity:1" fill="#c86f5b" d="M 297.5,310.5 C 297.833,310.5 298.167,310.5 298.5,310.5C 298.334,317.175 298.5,323.842 299,330.5C 306.341,324.998 313.175,325.665 319.5,332.5C 321.127,334.63 322.96,336.63 325,338.5C 326.822,343.829 324.989,346.496 319.5,346.5C 319.599,349.237 319.265,351.904 318.5,354.5C 310.391,361.672 303.058,361.006 296.5,352.5C 296.5,351.833 296.5,351.167 296.5,350.5C 301.501,350.328 304.501,347.828 305.5,343C 304.88,338.211 302.214,335.711 297.5,335.5C 297.5,327.167 297.5,318.833 297.5,310.5 Z"/></g>
<g><path style="opacity:1" fill="#c56f59" d="M 200.5,301.5 C 200.333,316.17 200.5,330.837 201,345.5C 201.833,347.667 203.333,349.167 205.5,350C 208.482,350.498 211.482,350.665 214.5,350.5C 214.5,351.167 214.5,351.833 214.5,352.5C 207.942,361.006 200.609,361.672 192.5,354.5C 192.672,353.508 192.338,352.842 191.5,352.5C 191.5,350.5 191.5,348.5 191.5,346.5C 186.011,346.496 184.178,343.829 186,338.5C 187.707,336.963 189.207,335.296 190.5,333.5C 191.167,333.5 191.5,333.167 191.5,332.5C 193.296,331.207 194.963,329.707 196.5,328C 197.448,327.517 198.448,327.351 199.5,327.5C 199.174,318.651 199.507,309.984 200.5,301.5 Z"/></g>
<g><path style="opacity:1" fill="#0076ef" d="M 247.5,350.5 C 263.833,350.5 280.167,350.5 296.5,350.5C 296.5,351.167 296.5,351.833 296.5,352.5C 296.5,368.167 296.5,383.833 296.5,399.5C 296.5,406.167 296.5,412.833 296.5,419.5C 296.5,430.5 296.5,441.5 296.5,452.5C 296.5,457.833 296.5,463.167 296.5,468.5C 296.5,475.833 296.5,483.167 296.5,490.5C 286.478,489.631 276.478,488.631 266.5,487.5C 266.667,445.499 266.5,403.499 266,361.5C 259.924,360.524 253.758,360.19 247.5,360.5C 247.5,357.167 247.5,353.833 247.5,350.5 Z"/></g>
<g><path style="opacity:1" fill="#93cffc" d="M 296.5,352.5 C 303.058,361.006 310.391,361.672 318.5,354.5C 318.5,370.167 318.5,385.833 318.5,401.5C 311.188,400.653 303.854,399.987 296.5,399.5C 296.5,383.833 296.5,368.167 296.5,352.5 Z"/></g>
<g><path style="opacity:1" fill="#92cffc" d="M 214.5,352.5 C 214.5,367.833 214.5,383.167 214.5,398.5C 207.271,400.154 199.938,401.154 192.5,401.5C 192.5,385.833 192.5,370.167 192.5,354.5C 200.609,361.672 207.942,361.006 214.5,352.5 Z"/></g>
<g><path style="opacity:0.999" fill="#92cffc" d="M 247.5,360.5 C 253.758,360.19 259.924,360.524 266,361.5C 266.5,403.499 266.667,445.499 266.5,487.5C 266.5,491.833 266.5,496.167 266.5,500.5C 259.167,500.5 251.833,500.5 244.5,500.5C 244.5,496.167 244.5,491.833 244.5,487.5C 244.333,445.499 244.5,403.499 245,361.5C 245.671,360.748 246.504,360.414 247.5,360.5 Z"/></g>
<g><path style="opacity:1" fill="#0f94fb" d="M 191.5,352.5 C 192.338,352.842 192.672,353.508 192.5,354.5C 192.5,370.167 192.5,385.833 192.5,401.5C 199.938,401.154 207.271,400.154 214.5,398.5C 214.5,405.5 214.5,412.5 214.5,419.5C 207.08,419.797 199.746,419.464 192.5,418.5C 191.714,396.509 191.38,374.509 191.5,352.5 Z"/></g>
<g><path style="opacity:1" fill="#0b95fc" d="M 296.5,399.5 C 303.854,399.987 311.188,400.653 318.5,401.5C 319.122,417.159 319.455,432.826 319.5,448.5C 319.167,448.5 318.833,448.5 318.5,448.5C 318.5,438.833 318.5,429.167 318.5,419.5C 311.167,419.5 303.833,419.5 296.5,419.5C 296.5,412.833 296.5,406.167 296.5,399.5 Z"/></g>
<g><path style="opacity:1" fill="#92cffc" d="M 192.5,418.5 C 199.746,419.464 207.08,419.797 214.5,419.5C 214.5,430.167 214.5,440.833 214.5,451.5C 207.167,450.833 199.833,450.167 192.5,449.5C 192.5,439.167 192.5,428.833 192.5,418.5 Z"/></g>
<g><path style="opacity:1" fill="#92cffc" d="M 296.5,419.5 C 303.833,419.5 311.167,419.5 318.5,419.5C 318.5,429.167 318.5,438.833 318.5,448.5C 311.26,449.831 303.926,451.165 296.5,452.5C 296.5,441.5 296.5,430.5 296.5,419.5 Z"/></g>
<g><path style="opacity:1" fill="#64bafb" d="M 161.5,319.5 C 162.499,366.997 162.832,414.664 162.5,462.5C 155.444,460.59 148.111,459.924 140.5,460.5C 140.5,453.833 140.5,447.167 140.5,440.5C 147.564,440.592 154.564,441.258 161.5,442.5C 161.5,401.5 161.5,360.5 161.5,319.5 Z"/></g>
<g><path style="opacity:1" fill="#64bafa" d="M 349.5,319.5 C 349.5,360.5 349.5,401.5 349.5,442.5C 356.443,441.288 363.443,440.621 370.5,440.5C 370.5,447.167 370.5,453.833 370.5,460.5C 363.167,460.5 355.833,460.5 348.5,460.5C 348.5,455.5 348.5,450.5 348.5,445.5C 348.168,403.33 348.501,361.33 349.5,319.5 Z"/></g>
<g><path style="opacity:1" fill="#00429c" d="M 348.5,445.5 C 348.5,450.5 348.5,455.5 348.5,460.5C 348.18,464.987 345.847,467.82 341.5,469C 326.455,469.801 311.455,469.634 296.5,468.5C 296.5,463.167 296.5,457.833 296.5,452.5C 303.926,451.165 311.26,449.831 318.5,448.5C 318.833,448.5 319.167,448.5 319.5,448.5C 329.195,447.697 338.861,446.697 348.5,445.5 Z"/></g>
<g><path style="opacity:0.985" fill="#0055ca" d="M 400.5,448.5 C 401.568,449.434 402.901,449.768 404.5,449.5C 405.167,449.5 405.833,449.5 406.5,449.5C 411.177,449.835 415.844,450.335 420.5,451C 426.795,453.425 428.962,457.925 427,464.5C 426.535,465.931 425.701,467.097 424.5,468C 408.596,469.47 392.596,469.97 376.5,469.5C 373.71,468.033 372.044,465.7 371.5,462.5C 371.5,456.833 371.5,451.167 371.5,445.5C 381.134,446.746 390.801,447.746 400.5,448.5 Z"/></g>
<g><path style="opacity:0.984" fill="#92cffc" d="M 140.5,460.5 C 148.111,459.924 155.444,460.59 162.5,462.5C 163.312,465.275 164.979,467.442 167.5,469C 182.878,469.817 198.211,469.65 213.5,468.5C 214.497,475.803 214.831,483.137 214.5,490.5C 207.684,491.856 200.684,492.856 193.5,493.5C 172.964,487.871 153.297,479.871 134.5,469.5C 137.39,466.971 139.39,463.971 140.5,460.5 Z"/></g>
<g><path style="opacity:0.986" fill="#92cffc" d="M 348.5,460.5 C 355.833,460.5 363.167,460.5 370.5,460.5C 370.328,461.492 370.662,462.158 371.5,462.5C 372.044,465.7 373.71,468.033 376.5,469.5C 357.703,479.871 338.036,487.871 317.5,493.5C 310.264,493.235 303.264,492.235 296.5,490.5C 296.5,483.167 296.5,475.833 296.5,468.5C 311.455,469.634 326.455,469.801 341.5,469C 345.847,467.82 348.18,464.987 348.5,460.5 Z"/></g>
<g><path style="opacity:0.989" fill="#00429c" d="M 244.5,487.5 C 244.5,491.833 244.5,496.167 244.5,500.5C 245.225,505.377 243.558,509.044 239.5,511.5C 223.833,511.5 208.167,511.5 192.5,511.5C 185.598,504.962 185.931,498.962 193.5,493.5C 200.684,492.856 207.684,491.856 214.5,490.5C 224.478,489.369 234.478,488.369 244.5,487.5 Z"/></g>
<g><path style="opacity:0.984" fill="#0055ca" d="M 266.5,487.5 C 276.478,488.631 286.478,489.631 296.5,490.5C 303.264,492.235 310.264,493.235 317.5,493.5C 325.069,498.962 325.402,504.962 318.5,511.5C 302.833,511.5 287.167,511.5 271.5,511.5C 267.442,509.044 265.775,505.377 266.5,500.5C 266.5,496.167 266.5,491.833 266.5,487.5 Z"/></g>
</svg>
