<svg xmlns="http://www.w3.org/2000/svg" xmlns:xlink="http://www.w3.org/1999/xlink" fill="none" version="1.1" width="16" height="16" viewBox="0 0 16 16"><defs><clipPath id="master_svg0_102_10211"><rect x="0" y="0" width="16" height="16" rx="0"/></clipPath></defs><g clip-path="url(#master_svg0_102_10211)"><g><path d="M9.71350390625,6.37531298828125C9.97317390625,5.21531298828125,10.15450390625,4.37631298828125,10.25783390625,3.85664298828125C10.51783390625,2.54831298828125,9.84267390625,1.33331298828125,8.504503906250001,1.33331298828125C7.29783390625,1.33331298828125,6.69183390625,1.93297998828125,6.33450390625,3.13164298828125L6.32533390625,3.16664298828125C6.11083390625,4.13631298828125,5.78283390625,4.88798298828125,5.34867390625,5.42581298828125C4.891383906250001,5.99371298828125,4.20678390625,6.33086298828125,3.47783390625,6.34714298828125L3.1355039062500003,6.35448298828125C2.31917090625,6.37198298828125,1.66650390625,7.04398298828125,1.66650390625,7.86714298828125L1.66650390625,12.83331298828125C1.66650390625,13.84581298828125,2.48067090625,14.66661298828125,3.48517390625,14.66661298828125L9.93083390625,14.66661298828125C11.25483390625,14.66661298828125,12.43670390625,13.82961298828125,12.88580390625,12.57411298828125L14.22480390625,8.83064298828125C14.56550390625,7.87814298828125,14.07580390625,6.82748298828125,13.13100390625,6.48398298828125C12.93330390625,6.41209298828125,12.72450390625,6.37531298828125,12.51400390625,6.37531298828125L9.71350390625,6.37531298828125ZM8.50383390625,2.33331298828125C9.117173906249999,2.33331298828125,9.43350390625,2.9033129882812503,9.28333390625,3.66031298828125C9.16500390625,4.25631298828125,8.93983390625,5.29198298828125,8.60800390625,6.76448298828125C8.53750390625,7.07731298828125,8.77300390625,7.37531298828125,9.09100390625,7.37531298828125L12.50770390625,7.37531298828125C12.60300390625,7.37531298828125,12.69770390625,7.39198298828125,12.78750390625,7.42481298828125C13.21630390625,7.58081298828125,13.43870390625,8.05848298828125,13.28400390625,8.49148298828125L11.94700390625,12.23481298828125C11.64017390625,13.09411298828125,10.83267390625,13.66661298828125,9.92800390625,13.66661298828125L3.49200390625,13.66661298828125C3.03600390625,13.66661298828125,2.66650390625,13.29351298828125,2.66650390625,12.83331298828125L2.66650390625,7.86714298828125C2.66650390625,7.58798298828125,2.88750390625,7.36014298828125,3.16383390625,7.35431298828125L3.50550390625,7.34698298828125C4.52493390625,7.32398298828125,5.4821339062500005,6.85184298828125,6.12083390625,6.05698298828125C6.65750390625,5.39131298828125,7.04500390625,4.505312988281251,7.29067390625,3.40264298828125C7.53267390625,2.59898298828125,7.80533390625,2.33331298828125,8.50383390625,2.33331298828125Z" fill="#697B98" fill-opacity="1"/></g></g></svg>
