<svg xmlns="http://www.w3.org/2000/svg" xmlns:xlink="http://www.w3.org/1999/xlink" fill="none" version="1.1" width="36" height="40" viewBox="0 0 36 40"><g><path d="M32.0184,17.4427C31.9893,17.2252,32.0464,17.0096,32.1791,16.8358L32.1805,16.8358C33.2041,15.4916,33.8788,14.2542,34.1852,13.1576C34.4635,12.161,34.4204,11.3343,34.056,10.7017C33.6291,9.96044,32.7724,9.47353,31.5083,9.25265C31.1564,10.0012,30.3781,10.5202,29.5195,10.5202C28.6609,10.5202,27.9161,10.0231,27.5546,9.3012C27.4737,9.31236,27.3977,9.32401,27.3247,9.33518C26.5725,9.45217,25.7919,9.6148,24.9889,9.81917C25.7067,12.8838,26.0861,16.3004,26.0861,20.0005C26.0861,23.7006,25.6825,27.3041,24.9328,30.4129C25.742,30.6187,26.53,30.7828,27.2884,30.9007C30.8583,31.4556,33.3997,30.9148,34.2612,29.4177C34.7224,28.6167,34.7176,27.558,34.2476,26.2705C33.7651,24.9492,32.7874,23.4248,31.4202,21.8617C30.653,20.985,29.7644,20.0951,28.779,19.2165C28.539,19.0029,28.5177,18.6344,28.7306,18.3941C28.9436,18.1534,29.3109,18.132,29.5505,18.3456C30.5717,19.2563,31.4947,20.1806,32.2933,21.0932C33.7752,22.787,34.7998,24.3938,35.3385,25.8696C35.9324,27.4963,35.9087,28.8857,35.2674,29.9998C34.4044,31.4988,32.513,32.2785,29.8303,32.2785C28.9973,32.2785,28.0889,32.2032,27.1107,32.0513C26.3146,31.9275,25.4884,31.7551,24.64,31.5386C24.5025,32.0285,24.3569,32.5042,24.2015,32.9629C23.4799,35.097,22.6048,36.7907,21.6001,37.9966C20.4922,39.3262,19.2808,40,17.9982,40C16.3599,40,14.802,38.8665,13.4923,36.7218C12.2896,34.7528,11.3236,31.9882,10.6983,28.7269C10.6378,28.4109,10.8439,28.1055,11.159,28.0449C11.4741,27.9842,11.7785,28.191,11.839,28.507C12.4382,31.6318,13.3524,34.2625,14.4826,36.1135C15.241,37.3553,16.4659,38.8354,17.9978,38.8354C18.9197,38.8354,19.8316,38.3019,20.7081,37.2499C21.6078,36.1703,22.4349,34.5591,23.1009,32.5896C23.2485,32.1518,23.3879,31.6988,23.5191,31.2313C20.469,30.3333,17.1779,28.8925,13.9536,27.0254C10.8488,25.2273,7.99955,23.1379,5.71223,20.9821C5.37585,21.3277,5.05594,21.6738,4.75393,22.019C2.10846,25.0428,1.05675,27.7643,1.94003,29.2988C2.22316,29.7905,2.70473,30.175,3.37166,30.4415C4.0991,30.7323,5.0298,30.8794,6.13862,30.8794C6.88444,30.8794,7.71061,30.8119,8.5934,30.6779C8.63406,30.6716,8.67519,30.6687,8.71585,30.6687C9.12337,30.6692,9.46313,30.9624,9.52411,31.3668C9.55653,31.5833,9.5033,31.7998,9.37359,31.976C9.24388,32.1522,9.05319,32.2678,8.83733,32.3003C7.88049,32.4454,6.9764,32.5188,6.1512,32.5188C2.64084,32.5188,1.15307,31.2144,0.522917,30.1197C0.188966,29.5391,0.0132785,28.8735,0.00069481,28.1405C-0.0109209,27.4507,0.123144,26.6992,0.399984,25.906C0.936726,24.3656,1.98795,22.6938,3.52509,20.9369C3.84839,20.568,4.19009,20.1986,4.54969,19.8296C4.54824,19.8282,4.54678,19.8272,4.54533,19.8257C0.785722,15.8994,-0.605257,12.3183,0.729095,10.0002C1.85146,8.0502,4.7186,7.31668,8.80248,7.93563C9.11949,7.98369,9.33777,8.28078,9.28986,8.59875C9.24194,8.91672,8.94623,9.13566,8.62873,9.0876C5.10192,8.55361,2.58906,9.09828,1.73482,10.5828C1.1037,11.6789,1.4725,13.0993,1.89308,14.0984C2.51936,15.5863,3.72352,17.2854,5.37585,19.0121C7.69948,16.7931,10.6242,14.6285,13.835,12.7692C17.0753,10.893,20.3848,9.4444,23.4537,8.5405C22.7912,6.25015,21.9301,4.35982,20.9622,3.0724C20.3083,2.20248,19.2629,1.16556,17.9973,1.16556C16.4659,1.16556,15.2405,2.64521,14.4826,3.8865C13.3524,5.73703,12.4382,8.36671,11.839,11.4911C11.7858,11.7697,11.5423,11.9634,11.2694,11.9634C11.2331,11.9634,11.1963,11.96,11.159,11.9527C10.8439,11.892,10.6378,11.5867,10.6983,11.2707C11.3241,8.01039,12.2901,5.24673,13.4923,3.27775C14.8015,1.13352,16.3595,0,17.9973,0C20.6679,0,23.0636,3.00007,24.5737,8.23175C25.4318,8.01282,26.2676,7.83854,27.073,7.71329C27.1819,7.6963,27.2947,7.6798,27.419,7.66281C27.6969,6.76473,28.553,6.11083,29.5186,6.11083C30.4841,6.11083,31.305,6.73803,31.5997,7.60747C32.4728,7.74291,33.2341,7.98806,33.8628,8.3371C34.5651,8.7274,35.1062,9.24683,35.4716,9.88131C36.0539,10.893,36.1555,12.1231,35.7736,13.5372C35.4174,14.8562,34.6455,16.3009,33.4795,17.8315C33.3256,18.0334,33.0827,18.1543,32.829,18.1543C32.6505,18.1543,32.4738,18.0946,32.3325,17.9859C32.1592,17.8529,32.0474,17.6601,32.0184,17.4427ZM28.3468,8.31525C28.3468,8.96332,28.8725,9.49052,29.5186,9.49052C30.1647,9.49052,30.6903,8.96332,30.6903,8.31525C30.6903,7.66718,30.1647,7.13998,29.5186,7.13998C28.8725,7.13998,28.3468,7.66718,28.3468,8.31525ZM31.698,8.59681C33.1107,8.85895,34.1184,9.45266,34.6416,10.3619C35.5636,11.9634,34.8812,14.4096,32.7182,17.2485C32.6708,17.3101,32.6829,17.3985,32.7444,17.4456C32.77,17.4655,32.8,17.4747,32.8295,17.4747C32.8716,17.4747,32.9133,17.4558,32.9408,17.4194C35.1769,14.4843,35.8675,11.928,34.885,10.2211C34.3163,9.23372,33.2317,8.59244,31.7164,8.31671C31.7164,8.41137,31.7096,8.50506,31.698,8.59681ZM14.3141,13.6013C18.7779,11.0168,23.3613,9.26285,27.2201,8.66332C27.2622,8.65701,27.3043,8.65167,27.346,8.64536C27.3324,8.55361,27.3247,8.45943,27.3227,8.36428C27.2743,8.37108,27.2264,8.37787,27.1775,8.38564C23.2853,8.99051,18.6671,10.7561,14.1743,13.3581C10.1005,15.7174,6.49967,18.5684,4.03424,21.386C1.06111,24.7836,-0.00414504,27.8434,1.11048,29.7803C1.89066,31.1352,3.64415,31.8396,6.15169,31.8396C6.94107,31.8396,7.80499,31.7697,8.73666,31.6284C8.81313,31.6168,8.86588,31.5449,8.85427,31.4682C8.84411,31.3983,8.78409,31.3483,8.71585,31.3483C8.70859,31.3483,8.70181,31.3488,8.69455,31.3498C7.77062,31.4896,6.9159,31.559,6.13862,31.559C3.74482,31.559,2.08087,30.9032,1.35344,29.6391C0.302219,27.8133,1.35634,24.8724,4.24478,21.5709C6.69036,18.7757,10.2665,15.9455,14.3141,13.6013ZM23.8114,30.1046C24.534,27.0944,24.9236,23.5986,24.9236,20.0005C24.9236,16.5091,24.5582,13.0964,23.8666,10.1274C20.9385,10.9935,17.7688,12.3853,14.6529,14.1897C11.5665,15.9771,8.76231,18.048,6.54033,20.1641C8.75796,22.2486,11.5206,24.2715,14.5343,26.0167C17.6701,27.8327,20.8615,29.2332,23.8114,30.1046ZM13.1246,20.0005C13.1246,22.6957,15.3108,24.888,17.9974,24.888C20.684,24.888,22.8702,22.6952,22.8702,20.0005C22.8702,17.3058,20.684,15.113,17.9974,15.113C15.3108,15.113,13.1246,17.3058,13.1246,20.0005ZM17.9974,15.9868C20.2039,15.9868,21.999,17.7873,21.999,20.0005C21.999,22.2137,20.2039,24.0142,17.9974,24.0142C15.7909,24.0142,13.9958,22.2137,13.9958,20.0005C13.9958,17.7873,15.7909,15.9868,17.9974,15.9868ZM17.7395,19.1936C17.7395,18.9485,17.8237,18.8262,17.9916,18.8262C18.1596,18.8262,18.2525,18.9485,18.2525,19.1936L18.2525,21.7568L19.4421,21.7568L19.4421,19.1936C19.4421,18.6941,19.3226,18.3106,19.083,18.0441C18.8434,17.7776,18.4984,17.6441,18.0468,17.6441C17.5952,17.6441,17.2308,17.7815,16.9578,18.0558C16.6853,18.33,16.5489,18.6956,16.5489,19.1524L16.5489,21.7568L17.7385,21.7568L17.7395,19.1936Z" fill-rule="evenodd" fill="#3B82F6" fill-opacity="1"/></g></svg>