<svg xmlns="http://www.w3.org/2000/svg" xmlns:xlink="http://www.w3.org/1999/xlink" fill="none" version="1.1" width="16" height="16" viewBox="0 0 16 16"><defs><clipPath id="master_svg0_152_4136"><rect x="0" y="0" width="16" height="16" rx="0"/></clipPath></defs><g clip-path="url(#master_svg0_152_4136)"><g><path d="M1.826695078125,0L10.452615078125,0L14.558455078125,4.02664L14.558455078125,15.5536C14.558455078125,15.8,14.352255078125,16,14.098155078125,16L1.826695078125,16C1.5726150781250001,16,1.366455078125,15.8,1.366455078125,15.5536L1.366455078125,0.4464C1.366374969525,0.2,1.5726150781250001,0,1.826695078125,0Z" fill="#4A8DFF" fill-opacity="1"/></g><g><path d="M10.45263671875,0L10.45263671875,3.58024C10.45263671875,3.82696,10.65887671875,4.02664,10.91295671875,4.02664L14.55847671875,4.02664L10.45263671875,0Z" fill="#E5F0FF" fill-opacity="1"/></g><g><path d="M11.293125625,12.867756279296875C11.689925625,13.289036279296875,12.413525625,13.017036279296875,12.413525625,12.446396279296875L12.413525625,5.803755951296875L11.124245625,5.803755951296875L11.124245625,10.834636279296875L8.562325625,8.113036279296875C8.440245625,7.983356279296875,8.267445625,7.909436279296875,8.086325625,7.909436279296875C7.905285625,7.909436279296875,7.732565624999999,7.983356279296875,7.610405625,8.113036279296875L5.048485625,10.834636279296875L5.048485625,5.803436279296875L3.759765625,5.803436279296875L3.759765625,12.446396279296875C3.759765625,13.017036279296875,4.483445625,13.289036279296875,4.880245625,12.867756279296875L8.086645625,9.461596279296876L11.293125625,12.867756279296875Z" fill="#FFFFFF" fill-opacity="1"/></g></g></svg>
