<svg xmlns="http://www.w3.org/2000/svg" xmlns:xlink="http://www.w3.org/1999/xlink" fill="none" version="1.1" width="16" height="16" viewBox="0 0 16 16"><defs><clipPath id="master_svg0_102_10220"><rect x="0" y="0" width="16" height="16" rx="0"/></clipPath></defs><g clip-path="url(#master_svg0_102_10220)"><g><path d="M12.85169609375,7.39298298828125C12.61099609375,7.25753298828125,12.30609609375,7.34282298828125,12.17069609375,7.58348298828125C12.03519609375,7.82414298828125,12.12049609375,8.12903298828125,12.36119609375,8.26448298828125L13.88379609375,9.121482988281251C14.20129609375,9.30014298828125,14.59719609375,9.09014298828125,14.62749609375,8.72698298828125C14.65369609375,8.411982988281249,14.66679609375,8.17114298828125,14.66679609375,7.99998298828125C14.66679609375,4.3181429882812505,11.68199609375,1.33331298828125,8.00016609375,1.33331298828125C4.3183260937500005,1.33331298828125,1.33349609375,4.3181429882812505,1.33349609375,7.99998298828125C1.33349609375,11.68181298828125,4.3183260937500005,14.66661298828125,8.00016609375,14.66661298828125C10.25182609375,14.66661298828125,12.31349609375,13.54111298828125,13.54319609375,11.70511298828125C13.69849609375,11.47571298828125,13.63759609375,11.16367298828125,13.40729609375,11.00947298828125C13.17709609375,10.85528298828125,12.86539609375,10.91769298828125,12.71229609375,11.14864298828125C11.66649609375,12.71031298828125,9.91482609375,13.66661298828125,8.00016609375,13.66661298828125C4.87049609375,13.66661298828125,2.33349609375,11.12964298828125,2.33349609375,7.99998298828125C2.33349609375,4.87031298828125,4.87049609375,2.33331298828125,8.00016609375,2.33331298828125C11.07982609375,2.33331298828125,13.58569609375,4.78998298828125,13.66479609375,7.85064298828125L12.85169609375,7.39298298828125Z" fill="#697B98" fill-opacity="1"/></g></g></svg>
