<svg xmlns="http://www.w3.org/2000/svg" xmlns:xlink="http://www.w3.org/1999/xlink" fill="none" version="1.1" width="16" height="16" viewBox="0 0 16 16"><defs><clipPath id="master_svg0_102_13639"><rect x="0" y="0" width="16" height="16" rx="0"/></clipPath></defs><g clip-path="url(#master_svg0_102_13639)"><g><path d="M12.21404296875,3.2590708984375L3.78710296875,3.2590708984375C3.64165296875,3.2590708984375,3.51790296875,3.3106008984375,3.41454296875,3.4135708984375C3.31180296875,3.5166208984375,3.26020296875,3.6405208984375,3.26020296875,3.7853608984375002L3.26020296875,9.579700898437501C3.26020296875,9.7262408984375,3.31188296875,9.8501508984375,3.41454296875,9.953200898437501C3.51790296875,10.0561708984375,3.64165296875,10.1076908984375,3.78710296875,10.1076908984375L5.36736296875,10.1076908984375L5.36736296875,11.7494408984375L7.66316296875,10.1076908984375L12.21434296875,10.1076908984375C12.35984296875,10.1076908984375,12.48364296875,10.0561708984375,12.58714296875,9.953200898437501C12.68984296875,9.8501508984375,12.74154296875,9.7262408984375,12.74154296875,9.5797808984375L12.74154296875,3.7853608984375002C12.74154296875,3.6404408984375003,12.68974296875,3.5165408984375,12.58714296875,3.4134908984375C12.48364296875,3.3105208984375,12.35984296875,3.2590008984375,12.21434296875,3.2590008984375L12.21404296875,3.2590708984375L12.21404296875,3.2590708984375ZM3.78679296875,2.2064208984375L12.21374296875,2.2064208984375C12.64954296875,2.2064208984375,13.02224296875,2.3593708984375,13.33094296875,2.6683618984375C13.63954296875,2.9773518984375,13.79364296875,3.3492208984375003,13.79364296875,3.7853608984375002L13.79364296875,9.579700898437501C13.79364296875,10.0159208984375,13.63954296875,10.3893408984375,13.33094296875,10.6967808984375C13.02224296875,11.0057708984375,12.64954296875,11.1602708984375,12.21374296875,11.1602708984375L7.99988296875,11.1602708984375L4.31339296875,13.7935208984375L4.31339296875,11.1603508984375L3.78679296875,11.1603508984375C3.35065296875,11.1603508984375,2.9782469687499997,11.0058508984375,2.66956496875,10.6968608984375C2.36088396875,10.3893408984375,2.20654296875,10.0158408984375,2.20654296875,9.579700898437501L2.20654296875,3.7853608984375002C2.20654296875,3.3491408984374997,2.36088396875,2.9773518984375,2.66956496875,2.6683618984375C2.9782469687499997,2.3593708984375,3.35065296875,2.2064208984375,3.78679296875,2.2064208984375Z" fill="#8A94A6" fill-opacity="1"/></g></g></svg>