<svg xmlns="http://www.w3.org/2000/svg" xmlns:xlink="http://www.w3.org/1999/xlink" fill="none" version="1.1" width="11.587142944335938" height="11.587142944335938" viewBox="0 0 11.587142944335938 11.587142944335938"><g><path d="M10.0075,1.05265L1.58056,1.05265C1.43511,1.05265,1.31136,1.10418,1.208,1.20715C1.10526,1.3102,1.05366,1.4341,1.05366,1.57894L1.05366,7.37328C1.05366,7.51982,1.10534,7.64373,1.208,7.74678C1.31136,7.84975,1.43511,7.90127,1.58056,7.90127L3.16082,7.90127L3.16082,9.54302L5.45662,7.90127L10.0078,7.90127C10.1533,7.90127,10.2771,7.84975,10.3806,7.74678C10.4833,7.64373,10.535,7.51982,10.535,7.37336L10.535,1.57894C10.535,1.43402,10.4832,1.31012,10.3806,1.20707C10.2771,1.1041,10.1533,1.05258,10.0078,1.05258L10.0075,1.05265L10.0075,1.05265ZM1.58025,0L10.0072,0C10.443,0,10.8157,0.15295,11.1244,0.461941C11.433,0.770931,11.5871,1.1428,11.5871,1.57894L11.5871,7.37328C11.5871,7.8095,11.433,8.18292,11.1244,8.49036C10.8157,8.79935,10.443,8.95385,10.0072,8.95385L5.79334,8.95385L2.10685,11.5871L2.10685,8.95393L1.58025,8.95393C1.14411,8.95393,0.771704,8.79943,0.463022,8.49044C0.154341,8.18292,0,7.80942,0,7.37328L0,1.57894C0,1.14272,0.154341,0.770931,0.463022,0.461941C0.771704,0.15295,1.14411,0,1.58025,0Z" fill="#3B82F6" fill-opacity="1"/></g></svg>
