<svg xmlns="http://www.w3.org/2000/svg" xmlns:xlink="http://www.w3.org/1999/xlink" fill="none" version="1.1" width="40" height="40" viewBox="0 0 40 40"><g><g><ellipse cx="20" cy="20" rx="20" ry="20" fill="#3B82F6" fill-opacity="1"/></g><g><path d="M28.947938236999512,18.793174508666993C28.929338236999513,18.65437450866699,28.965838236999513,18.51677450866699,29.05043823699951,18.40587450866699L29.051338236999513,18.40587450866699C29.70473823699951,17.547854508666994,30.135438236999512,16.758014508666992,30.33093823699951,16.058044508666992C30.508638236999513,15.421894508666991,30.481138236999513,14.894204508666991,30.24843823699951,14.490454508666993C29.97603823699951,14.017304508666992,29.429238236999513,13.706514508666992,28.62223823699951,13.565524508666993C28.397738236999512,14.043324508666991,27.90093823699951,14.374564508666992,27.352938236999513,14.374564508666992C26.80483823699951,14.374564508666992,26.32943823699951,14.057274508666993,26.098638236999513,13.596504508666992C26.047038236999512,13.603634508666993,25.99853823699951,13.611074508666992,25.95193823699951,13.618194508666992C25.471838236999513,13.692874508666993,24.973538236999513,13.796674508666992,24.461038236999514,13.927134508666992C24.919138236999512,15.883284508666993,25.161338236999512,18.06407450866699,25.161338236999512,20.425874508666993C25.161338236999512,22.787574508666992,24.903738236999512,25.087674508666993,24.425238236999512,27.072074508666994C24.941738236999512,27.203474508666993,25.444638236999513,27.30817450866699,25.92873823699951,27.383474508666993C28.20743823699951,27.73767450866699,29.82953823699951,27.392474508666993,30.379438236999512,26.436874508666993C30.67383823699951,25.92557450866699,30.67073823699951,25.24977450866699,30.37083823699951,24.427974508666992C30.06283823699951,23.584574508666993,29.438738236999512,22.61157450866699,28.56603823699951,21.613874508666992C28.07643823699951,21.054274508666992,27.50923823699951,20.486274508666995,26.88023823699951,19.92537450866699C26.727038236999512,19.789074508666992,26.71343823699951,19.553874508666993,26.84933823699951,19.400474508666992C26.98523823699951,19.24677450866699,27.21973823699951,19.23317450866699,27.37263823699951,19.369574508666993C28.02453823699951,19.950874508666992,28.613638236999513,20.540774508666992,29.123338236999512,21.12337450866699C30.069338236999513,22.20447450866699,30.723338236999513,23.23007450866699,31.06713823699951,24.17207450866699C31.446238236999513,25.21037450866699,31.431038236999512,26.097174508666992,31.02173823699951,26.808374508666994C30.470938236999512,27.76517450866699,29.263638236999512,28.262874508666993,27.551238236999513,28.262874508666993C27.019538236999512,28.262874508666993,26.43973823699951,28.21477450866699,25.815338236999512,28.117874508666993C25.307138236999513,28.038774508666993,24.779838236999513,27.928774508666994,24.23833823699951,27.790574508666992C24.150538236999513,28.103274508666992,24.057538236999513,28.40697450866699,23.958438236999513,28.69977450866699C23.497838236999513,30.061874508666993,22.93923823699951,31.142974508666992,22.297938236999514,31.912674508666992C21.590738236999513,32.76137450866699,20.81753823699951,33.19147450866699,19.99883823699951,33.19147450866699C18.953138236999514,33.19147450866699,17.95871823699951,32.46797450866699,17.122758236999513,31.09897450866699C16.35506823699951,29.842174508666993,15.738448236999512,28.07757450866699,15.339318236999512,25.995874508666994C15.300698236999512,25.79417450866699,15.432298236999511,25.59927450866699,15.63341823699951,25.560574508666992C15.83452823699951,25.521774508666994,16.028838236999512,25.65377450866699,16.067458236999514,25.855574508666994C16.449908236999512,27.850074508666992,17.033478236999514,29.529274508666994,17.754818236999512,30.710774508666994C18.238908236999514,31.503374508666994,19.02083823699951,32.448174508666995,19.99853823699951,32.448174508666995C20.58703823699951,32.448174508666995,21.169138236999512,32.10757450866699,21.728538236999512,31.43617450866699C22.302838236999513,30.74697450866699,22.83083823699951,29.718574508666993,23.255938236999512,28.461474508666992C23.350138236999513,28.181974508666993,23.43913823699951,27.892874508666992,23.52283823699951,27.59447450866699C21.575938236999512,27.02127450866699,19.475238236999513,26.101574508666992,17.417158236999512,24.90987450866699C15.435388236999511,23.76207450866699,13.616728236999512,22.428474508666994,12.156738236999512,21.052374508666993C11.942038236999512,21.27297450866699,11.737838236999512,21.493974508666994,11.545058236999513,21.714274508666993C9.856458236999512,23.644374508666992,9.185162236999512,25.381474508666994,9.748958236999512,26.360874508666992C9.929678236999512,26.674774508666992,10.237058236999513,26.920174508666992,10.662768236999511,27.090374508666994C11.127078236999512,27.27597450866699,11.721148236999511,27.369774508666993,12.428908236999511,27.369774508666993C12.904958236999512,27.369774508666993,13.432298236999511,27.326774508666993,13.995788236999513,27.241274508666994C14.02173823699951,27.237174508666993,14.047998236999511,27.235374508666993,14.073948236999513,27.235374508666993C14.33405823699951,27.235674508666992,14.55092823699951,27.422774508666993,14.589858236999511,27.680974508666992C14.610558236999513,27.819074508666993,14.576568236999512,27.95727450866699,14.49377823699951,28.069774508666992C14.410988236999511,28.182274508666993,14.289268236999511,28.25607450866699,14.151488236999512,28.276774508666993C13.540738236999513,28.369474508666993,12.963658236999512,28.41617450866699,12.436938236999511,28.41617450866699C10.196278236999511,28.41617450866699,9.246639236999512,27.58367450866699,8.844415236999511,26.884874508666993C8.631254236999512,26.514274508666993,8.519113856999512,26.089474508666992,8.511081732999513,25.621574508666992C8.503667466999511,25.18127450866699,8.589240536999512,24.701574508666994,8.765947236999512,24.19527450866699C9.108548236999512,23.212074508666994,9.779538236999512,22.14497450866699,10.760698236999511,21.023574508666993C10.967058236999511,20.788074508666995,11.185158236999511,20.55227450866699,11.414698236999511,20.31677450866699C11.413768236999513,20.315874508666994,11.412838236999512,20.315174508666992,11.411918236999512,20.31427450866699C9.012163236999513,17.808174508666994,8.124304236999512,15.522294508666992,8.976018236999511,14.042704508666993C9.692418236999512,12.797994508666992,11.522508236999512,12.329794508666993,14.129248236999512,12.724874508666993C14.331588236999512,12.755544508666993,14.470918236999513,12.945184508666992,14.440338236999512,13.148144508666991C14.409748236999512,13.351094508666993,14.220998236999511,13.490844508666992,14.018338236999512,13.460174508666991C11.767178236999513,13.119324508666992,10.163228236999512,13.466984508666993,9.617968236999511,14.414544508666992C9.215128236999512,15.114204508666992,9.450531236999511,16.020864508666993,9.718988236999511,16.65855450866699C10.118738236999512,17.608274508666995,10.887358236999512,18.692774508666993,11.942038236999512,19.794974508666993C13.425198236999512,18.378574508666993,15.292048236999513,16.996924508666993,17.341478236999514,15.810154508666992C19.409738236999512,14.612544508666993,21.522238236999513,13.687914508666992,23.481138236999513,13.110954508666993C23.05813823699951,11.649034508666992,22.50863823699951,10.442434508666992,21.89073823699951,9.620684508666992C21.47333823699951,9.065414508666992,20.806138236999512,8.403550508666992,19.998238236999512,8.403550508666992C19.02083823699951,8.403550508666992,18.23860823699951,9.348004508666993,17.754818236999512,10.140324508666993C17.033478236999514,11.321514508666992,16.449908236999512,13.000024508666993,16.067458236999514,14.994294508666993C16.033478236999514,15.172154508666992,15.878088236999512,15.295784508666992,15.703848236999512,15.295784508666992C15.680678236999512,15.295784508666992,15.657198236999513,15.293614508666991,15.63341823699951,15.288964508666993C15.432298236999511,15.250234508666992,15.300698236999512,15.055334508666991,15.339318236999512,14.853614508666993C15.738758236999512,12.772584508666991,16.355378236999513,11.008554508666993,17.122758236999513,9.751754508666991C17.95840823699951,8.383099508666993,18.95283823699951,7.659574508666992,19.998238236999512,7.659574508666992C21.70293823699951,7.659574508666992,23.23213823699951,9.574514508666992,24.19593823699951,12.913884508666992C24.743738236999512,12.774134508666993,25.277238236999512,12.662894508666993,25.79123823699951,12.582954508666992C25.860738236999513,12.572104508666992,25.932738236999512,12.561574508666993,26.01213823699951,12.550724508666992C26.18943823699951,11.977484508666993,26.735938236999512,11.560104508666992,27.35223823699951,11.560104508666992C27.96863823699951,11.560104508666992,28.49253823699951,11.960444508666992,28.680638236999513,12.515404508666993C29.23793823699951,12.601854508666992,29.723938236999512,12.758334508666993,30.12523823699951,12.981124508666992C30.57343823699951,13.230254508666992,30.918838236999513,13.561804508666992,31.152138236999512,13.966794508666993C31.523738236999513,14.612544508666993,31.58863823699951,15.397734508666993,31.34483823699951,16.30035450866699C31.11753823699951,17.14224450866699,30.624738236999512,18.064374508666994,29.880538236999513,19.04137450866699C29.78233823699951,19.170274508666992,29.62723823699951,19.24747450866699,29.46533823699951,19.24747450866699C29.35133823699951,19.24747450866699,29.238638236999513,19.20937450866699,29.14843823699951,19.139874508666992C29.037838236999512,19.054974508666994,28.96643823699951,18.93197450866699,28.947938236999512,18.793174508666993ZM26.60433823699951,12.967184508666993C26.60433823699951,13.380844508666993,26.939838236999513,13.717354508666993,27.35223823699951,13.717354508666993C27.764738236999513,13.717354508666993,28.100238236999513,13.380844508666993,28.100238236999513,12.967184508666993C28.100238236999513,12.553514508666993,27.764738236999513,12.217004508666992,27.35223823699951,12.217004508666992C26.939838236999513,12.217004508666992,26.60433823699951,12.553514508666993,26.60433823699951,12.967184508666993ZM28.743338236999513,13.146904508666992C29.64513823699951,13.314224508666992,30.28833823699951,13.693184508666992,30.62223823699951,14.273554508666992C31.21083823699951,15.295784508666992,30.775238236999513,16.857174508666994,29.394638236999512,18.669274508666994C29.36433823699951,18.70857450866699,29.37203823699951,18.76497450866699,29.411338236999512,18.795074508666993C29.427638236999513,18.80777450866699,29.44683823699951,18.813674508666992,29.46563823699951,18.813674508666992C29.49253823699951,18.813674508666992,29.519138236999513,18.80157450866699,29.53673823699951,18.778274508666993C30.96393823699951,16.90489450866699,31.404838236999513,15.273164508666992,30.77763823699951,14.183694508666992C30.41463823699951,13.553434508666992,29.722338236999512,13.144114508666991,28.75513823699951,12.968114508666993C28.75513823699951,13.028534508666993,28.750838236999513,13.088334508666993,28.743338236999513,13.146904508666992ZM17.64731823699951,16.341254508666992C20.496538236999513,14.691554508666993,23.422138236999512,13.572034508666992,25.885138236999513,13.189354508666991C25.91203823699951,13.185324508666993,25.938938236999512,13.181914508666992,25.96553823699951,13.177884508666992C25.956838236999513,13.119324508666992,25.95193823699951,13.059214508666992,25.950638236999513,12.998474508666991C25.91973823699951,13.002814508666992,25.88923823699951,13.007154508666993,25.858038236999512,13.012114508666993C23.37363823699951,13.398194508666993,20.42583823699951,14.525164508666993,17.55803823699951,16.186014508666993C14.957788236999512,17.691974508666995,12.659368236999512,19.511774508666992,11.085688236999513,21.310174508666993C9.187942236999511,23.47887450866699,8.50799246699951,25.431974508666993,9.219453236999511,26.668274508666993C9.717448236999513,27.533074508666992,10.836688236999512,27.982774508666992,12.437248236999512,27.982774508666992C12.941108236999511,27.982774508666992,13.492548236999511,27.938074508666993,14.087228236999511,27.847974508666994C14.13603823699951,27.840474508666993,14.169718236999511,27.794674508666994,14.162298236999511,27.74567450866699C14.155808236999512,27.70107450866699,14.117508236999512,27.66917450866699,14.073948236999513,27.66917450866699C14.069308236999511,27.66917450866699,14.064988236999511,27.66947450866699,14.060348236999513,27.670074508666993C13.470608236999512,27.75927450866699,12.925038236999512,27.803674508666994,12.428908236999511,27.803674508666994C10.900948236999511,27.803674508666994,9.838858236999512,27.384974508666993,9.374535236999511,26.578174508666994C8.703544236999512,25.412774508666992,9.376388236999512,23.53557450866699,11.220068236999511,21.428274508666995C12.781078236999512,19.644074508666993,15.063748236999512,17.837574508666993,17.64731823699951,16.341254508666992ZM23.70943823699951,26.87527450866699C24.170638236999512,24.953874508666992,24.41933823699951,22.722574508666995,24.41933823699951,20.425874508666993C24.41933823699951,18.197274508666993,24.18603823699951,16.019004508666992,23.744638236999513,14.123894508666993C21.875638236999514,14.676684508666991,19.85243823699951,15.565054508666993,17.863568236999512,16.716804508666993C15.893528236999511,17.857674508666992,14.103598236999511,19.17957450866699,12.685318236999512,20.53027450866699C14.100818236999512,21.860774508666992,15.864188236999512,23.151974508666992,17.78787823699951,24.265974508666993C19.789438236999512,25.42517450866699,21.82653823699951,26.319074508666993,23.70943823699951,26.87527450866699ZM16.88804823699951,20.425874508666993C16.88804823699951,22.14617450866699,18.283478236999514,23.54557450866699,19.998338236999512,23.54557450866699C21.713238236999512,23.54557450866699,23.10863823699951,22.145874508666992,23.10863823699951,20.425874508666993C23.10863823699951,18.70577450866699,21.713238236999512,17.306164508666992,19.998338236999512,17.306164508666992C18.283478236999514,17.306164508666992,16.88804823699951,18.70577450866699,16.88804823699951,20.425874508666993ZM19.998338236999512,17.863874508666992C21.406738236999512,17.863874508666992,22.55253823699951,19.013174508666992,22.55253823699951,20.425874508666993C22.55253823699951,21.83847450866699,21.406738236999512,22.987774508666995,19.998338236999512,22.987774508666995C18.58993823699951,22.987774508666995,17.44411823699951,21.83847450866699,17.44411823699951,20.425874508666993C17.44411823699951,19.013174508666992,18.58993823699951,17.863874508666992,19.998338236999512,17.863874508666992ZM19.833738236999512,19.910874508666993C19.833738236999512,19.75437450866699,19.88743823699951,19.676274508666992,19.994638236999513,19.676274508666992C20.101838236999512,19.676274508666992,20.161138236999513,19.75437450866699,20.161138236999513,19.910874508666993L20.161138236999513,21.546874508666992L20.920538236999512,21.546874508666992L20.920538236999512,19.910874508666993C20.920538236999512,19.591974508666993,20.844238236999512,19.347174508666992,20.69123823699951,19.17707450866699C20.53833823699951,19.006974508666993,20.31813823699951,18.921774508666992,20.02983823699951,18.921774508666992C19.741638236999513,18.921774508666992,19.509038236999512,19.00947450866699,19.334738236999513,19.184474508666995C19.16083823699951,19.35957450866699,19.07373823699951,19.59287450866699,19.07373823699951,19.88447450866699L19.07373823699951,21.546874508666992L19.833038236999514,21.546874508666992L19.833738236999512,19.910874508666993Z" fill-rule="evenodd" fill="#FFFFFF" fill-opacity="1"/></g></g></svg>
