<svg xmlns="http://www.w3.org/2000/svg" xmlns:xlink="http://www.w3.org/1999/xlink" fill="none" version="1.1" width="14" height="14" viewBox="0 0 14 14"><defs><clipPath id="master_svg0_134_4385"><rect x="0" y="0" width="14" height="14" rx="0"/></clipPath></defs><g clip-path="url(#master_svg0_134_4385)"><g><path d="M4.0836621875,1.75L5.2503221875,1.75L5.2503221875,5.25L4.0836621875,5.25L4.0836621875,4.08333L1.1669921875,4.08333L1.1669921875,2.91667L4.0836621875,2.91667L4.0836621875,1.75ZM6.4169921875,2.91667L12.8336921875,2.91667L12.8336921875,4.08333L6.4169921875,4.08333L6.4169921875,2.91667ZM8.1669921875,5.25L9.3336621875,5.25L9.3336621875,8.75L8.1669921875,8.75L8.1669921875,7.58333L1.1669921875,7.58333L1.1669921875,6.41667L8.1669921875,6.41667L8.1669921875,5.25ZM10.5003221875,6.41667L12.8336921875,6.41667L12.8336921875,7.58333L10.5003221875,7.58333L10.5003221875,6.41667ZM4.0836621875,8.75L5.2503221875,8.75L5.2503221875,12.25L4.0836621875,12.25L4.0836621875,11.08333L1.1669921875,11.08333L1.1669921875,9.91667L4.0836621875,9.91667L4.0836621875,8.75ZM6.4169921875,9.91667L12.8336921875,9.91667L12.8336921875,11.08333L6.4169921875,11.08333L6.4169921875,9.91667Z" fill-rule="evenodd" fill="#3B82F6" fill-opacity="1"/></g></g></svg>
