<svg xmlns="http://www.w3.org/2000/svg" xmlns:xlink="http://www.w3.org/1999/xlink" fill="none" version="1.1" width="16" height="16" viewBox="0 0 16 16"><defs><clipPath id="master_svg0_102_13594"><rect x="0" y="0" width="16" height="16" rx="0"/></clipPath></defs><g clip-path="url(#master_svg0_102_13594)"><g><path d="M10.2,6.2C11.08366,6.2,11.8,5.48366,11.8,4.6C11.8,3.716344,11.08366,3,10.2,3C9.31634,3,8.6,3.716344,8.6,4.6C8.6,4.77909,8.62942,4.95131,8.6837,5.112080000000001L5.67607,6.6159C5.3919,6.3575,5.01434,6.2,4.6,6.2C3.716344,6.2,3,6.91634,3,7.8C3,8.68366,3.716344,9.4,4.6,9.4C5.14196,9.4,5.62099,9.13054,5.91042,8.71828L9.07,10.473600000000001C9.02436,10.64133,9,10.817820000000001,9,11C9,12.10457,9.895430000000001,13,11,13C12.10457,13,13,12.10457,13,11C13,9.895430000000001,12.10457,9,11,9C10.36516,9,9.7994,9.29578,9.433019999999999,9.75706L6.19242,7.95673C6.197430000000001,7.90516,6.2,7.85288,6.2,7.8C6.2,7.62087,6.17056,7.44861,6.1162600000000005,7.2878L9.12383,5.78402C9.40801,6.04247,9.78561,6.2,10.2,6.2ZM10.2,3.8C10.641829999999999,3.8,11,4.15817,11,4.6C11,5.04183,10.641829999999999,5.4,10.2,5.4C9.75817,5.4,9.4,5.04183,9.4,4.6C9.4,4.15817,9.75817,3.8,10.2,3.8ZM4.6,7C5.04183,7,5.4,7.35817,5.4,7.8C5.4,8.24183,5.04183,8.6,4.6,8.6C4.15817,8.6,3.8,8.24183,3.8,7.8C3.8,7.35817,4.15817,7,4.6,7ZM11,9.8C11.66274,9.8,12.2,10.33726,12.2,11C12.2,11.66274,11.66274,12.2,11,12.2C10.33726,12.2,9.8,11.66274,9.8,11C9.8,10.33726,10.33726,9.8,11,9.8Z" fill-rule="evenodd" fill="#8A94A6" fill-opacity="1"/></g></g></svg>
