<svg xmlns="http://www.w3.org/2000/svg" xmlns:xlink="http://www.w3.org/1999/xlink" fill="none" version="1.1" width="15" height="15" viewBox="0 0 15 15"><g><path d="M15,7.5C15,11.6431,11.6418,15,7.5,15C3.35816,15,0,11.6431,0,7.5C0,3.35936,3.35816,0,7.5,0C11.6418,0,15,3.35936,15,7.5ZM7.5,9.0121C6.7317,9.0121,6.10887,9.63493,6.10887,10.4032C6.10887,11.1715,6.7317,11.7944,7.5,11.7944C8.2683,11.7944,8.89113,11.1715,8.89113,10.4032C8.89113,9.63493,8.2683,9.0121,7.5,9.0121ZM6.17924,4.01171C6.17924,4.01171,6.40358,8.12462,6.40358,8.12462C6.41407,8.31708,6.57321,8.46774,6.76594,8.46774C6.76594,8.46774,8.23406,8.46774,8.23406,8.46774C8.4268,8.46774,8.58593,8.31708,8.59642,8.12462C8.59642,8.12462,8.82076,4.01171,8.82076,4.01171C8.8321,3.80383,8.66658,3.62903,8.4584,3.62903C8.4584,3.62903,6.54157,3.62903,6.54157,3.62903C6.33339,3.62903,6.1679,3.80383,6.17924,4.01171Z" fill="#8A94A6" fill-opacity="1"/></g></svg>
