<svg xmlns="http://www.w3.org/2000/svg" xmlns:xlink="http://www.w3.org/1999/xlink" fill="none" version="1.1" width="24" height="24" viewBox="0 0 24 24"><defs><clipPath id="master_svg0_134_6617"><rect x="0" y="0" width="24" height="24" rx="0"/></clipPath></defs><g clip-path="url(#master_svg0_134_6617)"><g><path d="M2.7401646875,0L15.6790046875,0L21.8378046875,6.03996L21.8378046875,23.3304C21.8378046875,23.7,21.5284046875,24,21.1473046875,24L2.7401646875,24C2.3590446875,24,2.0498046875,23.7,2.0498046875,23.3304L2.0498046875,0.6696C2.0496845245,0.3,2.3590446875,0,2.7401646875,0Z" fill="#4A8DFF" fill-opacity="1"/></g><g><path d="M15.678955078125,0L15.678955078125,5.37036C15.678955078125,5.74044,15.988315078125,6.03996,16.369435078125,6.03996L21.837715078125,6.03996L15.678955078125,0Z" fill="#E5F0FF" fill-opacity="1"/></g><g><path d="M16.9396484375,19.3017001953125C17.534848437500003,19.9336001953125,18.620248437500003,19.5256001953125,18.620248437500003,18.6696401953125L18.620248437500003,8.7056797023125L16.6863484375,8.7056797023125L16.6863484375,16.2520001953125L12.8434884375,12.1696001953125C12.6603684375,11.9750801953125,12.4011684375,11.864200195312499,12.129488437500001,11.864200195312499C11.8579284375,11.864200195312499,11.5988484375,11.9750801953125,11.415608437500001,12.1696001953125L7.5727284375,16.2520001953125L7.5727284375,8.7052001953125L5.6396484375,8.7052001953125L5.6396484375,18.6696401953125C5.6396484375,19.5256001953125,6.7251684375,19.9336001953125,7.3203684375,19.3017001953125L12.1299684375,14.1924401953125L16.9396484375,19.3017001953125Z" fill="#FFFFFF" fill-opacity="1"/></g></g></svg>
