<svg xmlns="http://www.w3.org/2000/svg" xmlns:xlink="http://www.w3.org/1999/xlink" fill="none" version="1.1" width="16" height="16" viewBox="0 0 16 16"><defs><clipPath id="master_svg0_105_2735"><rect x="0" y="0" width="16" height="16" rx="0"/></clipPath></defs><g clip-path="url(#master_svg0_105_2735)"><g><path d="M7,3.333343505859375L7,12.666673505859375Q7,12.765173505859375,7.019215,12.861773505859375Q7.03843,12.958363505859374,7.076121,13.049363505859375Q7.113812,13.140353505859375,7.16853,13.222243505859375Q7.223249,13.304143505859376,7.292893,13.373743505859375Q7.362537,13.443443505859374,7.44443,13.498143505859375Q7.526322,13.552843505859375,7.617317,13.590543505859374Q7.708311,13.628243505859375,7.80491,13.647443505859375Q7.9015086,13.666643505859374,8,13.666643505859374Q8.0984914,13.666643505859374,8.19509,13.647443505859375Q8.291689,13.628243505859375,8.382683,13.590543505859374Q8.473678,13.552843505859375,8.55557,13.498143505859375Q8.637463,13.443443505859374,8.707107,13.373743505859375Q8.776751,13.304143505859376,8.83147,13.222243505859375Q8.886188,13.140353505859375,8.923879,13.049363505859375Q8.96157,12.958363505859374,8.980785000000001,12.861773505859375Q9,12.765173505859375,9,12.666673505859375L9,3.333343505859375Q9,3.234852105859375,8.980785000000001,3.138253505859375Q8.96157,3.041654505859375,8.923879,2.950660505859375Q8.886188,2.859665505859375,8.83147,2.777773505859375Q8.776751,2.695880505859375,8.707107,2.626236505859375Q8.637463,2.556592505859375,8.55557,2.501873505859375Q8.473678,2.4471555058593752,8.382683,2.409464505859375Q8.291689,2.371773505859375,8.19509,2.352558505859375Q8.0984914,2.333343505859375,8,2.333343505859375Q7.9015086,2.333343505859375,7.80491,2.352558505859375Q7.708311,2.371773505859375,7.617317,2.409464505859375Q7.526322,2.4471555058593752,7.44443,2.501873505859375Q7.362537,2.556592505859375,7.292893,2.626236505859375Q7.223249,2.695880505859375,7.16853,2.777773505859375Q7.113812,2.859665505859375,7.076121,2.950660505859375Q7.03843,3.041654505859375,7.019215,3.138253505859375Q7,3.234852105859375,7,3.333343505859375Z" fill-rule="evenodd" fill="#FFFFFF" fill-opacity="1"/></g><g><path d="M3.333251953125,9L12.666581953125,9Q12.765081953125,9,12.861681953125,8.980785000000001Q12.958271953125,8.96157,13.049271953125,8.923879Q13.140261953125,8.886188,13.222151953125,8.83147Q13.304051953125,8.776751,13.373651953125,8.707107Q13.443351953125,8.637463,13.498051953125,8.55557Q13.552751953125,8.473678,13.590451953125,8.382683Q13.628151953125,8.291689,13.647351953125,8.19509Q13.666551953125,8.0984914,13.666551953125,8Q13.666551953125,7.9015086,13.647351953125,7.80491Q13.628151953125,7.708311,13.590451953125,7.617317Q13.552751953125,7.526322,13.498051953125,7.44443Q13.443351953125,7.362537,13.373651953125,7.292893Q13.304051953125,7.223249,13.222151953125,7.16853Q13.140261953125,7.113812,13.049271953125,7.076121Q12.958271953125,7.03843,12.861681953125,7.019215Q12.765081953125,7,12.666581953125,7L3.333251953125,7Q3.234760553125,7,3.138161953125,7.019215Q3.041562953125,7.03843,2.950568953125,7.076121Q2.859573953125,7.113812,2.777681953125,7.16853Q2.695788953125,7.223249,2.626144953125,7.292893Q2.556500953125,7.362537,2.501781953125,7.44443Q2.4470639531250002,7.526322,2.409372953125,7.617317Q2.371681953125,7.708311,2.352466953125,7.80491Q2.333251953125,7.9015086,2.333251953125,8Q2.333251953125,8.0984914,2.352466953125,8.19509Q2.371681953125,8.291689,2.409372953125,8.382683Q2.4470639531250002,8.473678,2.501781953125,8.55557Q2.556500953125,8.637463,2.626144953125,8.707107Q2.695788953125,8.776751,2.777681953125,8.83147Q2.859573953125,8.886188,2.950568953125,8.923879Q3.041562953125,8.96157,3.138161953125,8.980785000000001Q3.234760553125,9,3.333251953125,9Z" fill-rule="evenodd" fill="#FFFFFF" fill-opacity="1"/></g></g></svg>